<?xml version="1.0" encoding="UTF-8" standalone="no"?>
<svg
   xmlns:dc="http://purl.org/dc/elements/1.1/"
   xmlns:cc="http://creativecommons.org/ns#"
   xmlns:rdf="http://www.w3.org/1999/02/22-rdf-syntax-ns#"
   xmlns:svg="http://www.w3.org/2000/svg"
   xmlns="http://www.w3.org/2000/svg"
   viewBox="0 0 2000 1700"
   height="1700"
   width="2000"
   xml:space="preserve"
   version="1.1"
   id="svg3336"><metadata
     id="metadata3342"><rdf:RDF><cc:Work
         rdf:about=""><dc:format>image/svg+xml</dc:format><dc:type
           rdf:resource="http://purl.org/dc/dcmitype/StillImage" /><dc:title></dc:title></cc:Work></rdf:RDF></metadata><defs
     id="defs3340"><clipPath
       id="clipPath3354"
       clipPathUnits="userSpaceOnUse"><path
         id="path3356"
         d="M 0,522 378,522 378,0 0,0 0,522 Z" /></clipPath><clipPath
       id="clipPath3386"
       clipPathUnits="userSpaceOnUse"><path
         id="path3388"
         d="M 0,522 378,522 378,0 0,0 0,522 Z" /></clipPath><clipPath
       id="clipPath3418"
       clipPathUnits="userSpaceOnUse"><path
         id="path3420"
         d="M 0,522 378,522 378,0 0,0 0,522 Z" /></clipPath><clipPath
       id="clipPath3628"
       clipPathUnits="userSpaceOnUse"><path
         id="path3630"
         d="M 0,522 378,522 378,0 0,0 0,522 Z" /></clipPath><clipPath
       id="clipPath3784"
       clipPathUnits="userSpaceOnUse"><path
         id="path3786"
         d="M 0,522 378,522 378,0 0,0 0,522 Z" /></clipPath><clipPath
       id="clipPath3800"
       clipPathUnits="userSpaceOnUse"><path
         id="path3802"
         d="M 0,522 378,522 378,0 0,0 0,522 Z" /></clipPath><clipPath
       id="clipPath3816"
       clipPathUnits="userSpaceOnUse"><path
         id="path3818"
         d="M 0,522 378,522 378,0 0,0 0,522 Z" /></clipPath><clipPath
       id="clipPath3832"
       clipPathUnits="userSpaceOnUse"><path
         id="path3834"
         d="M 0,522 378,522 378,0 0,0 0,522 Z" /></clipPath><clipPath
       id="clipPath3848"
       clipPathUnits="userSpaceOnUse"><path
         id="path3850"
         d="M 0,522 378,522 378,0 0,0 0,522 Z" /></clipPath><clipPath
       id="clipPath3864"
       clipPathUnits="userSpaceOnUse"><path
         id="path3866"
         d="M 0,522 378,522 378,0 0,0 0,522 Z" /></clipPath><clipPath
       id="clipPath3880"
       clipPathUnits="userSpaceOnUse"><path
         id="path3882"
         d="M 0,522 378,522 378,0 0,0 0,522 Z" /></clipPath><clipPath
       id="clipPath3896"
       clipPathUnits="userSpaceOnUse"><path
         id="path3898"
         d="M 0,522 378,522 378,0 0,0 0,522 Z" /></clipPath><clipPath
       id="clipPath3912"
       clipPathUnits="userSpaceOnUse"><path
         id="path3914"
         d="M 0,522 378,522 378,0 0,0 0,522 Z" /></clipPath><clipPath
       id="clipPath3928"
       clipPathUnits="userSpaceOnUse"><path
         id="path3930"
         d="M 0,522 378,522 378,0 0,0 0,522 Z" /></clipPath><clipPath
       id="clipPath3944"
       clipPathUnits="userSpaceOnUse"><path
         id="path3946"
         d="M 0,522 378,522 378,0 0,0 0,522 Z" /></clipPath><clipPath
       id="clipPath3960"
       clipPathUnits="userSpaceOnUse"><path
         id="path3962"
         d="M 0,522 378,522 378,0 0,0 0,522 Z" /></clipPath><clipPath
       id="clipPath3976"
       clipPathUnits="userSpaceOnUse"><path
         id="path3978"
         d="M 0,522 378,522 378,0 0,0 0,522 Z" /></clipPath><clipPath
       id="clipPath3992"
       clipPathUnits="userSpaceOnUse"><path
         id="path3994"
         d="M 0,522 378,522 378,0 0,0 0,522 Z" /></clipPath><clipPath
       id="clipPath4008"
       clipPathUnits="userSpaceOnUse"><path
         id="path4010"
         d="M 0,522 378,522 378,0 0,0 0,522 Z" /></clipPath><clipPath
       id="clipPath4024"
       clipPathUnits="userSpaceOnUse"><path
         id="path4026"
         d="M 0,522 378,522 378,0 0,0 0,522 Z" /></clipPath><clipPath
       id="clipPath4040"
       clipPathUnits="userSpaceOnUse"><path
         id="path4042"
         d="M 0,522 378,522 378,0 0,0 0,522 Z" /></clipPath><clipPath
       id="clipPath4056"
       clipPathUnits="userSpaceOnUse"><path
         id="path4058"
         d="M 0,522 378,522 378,0 0,0 0,522 Z" /></clipPath><clipPath
       id="clipPath4072"
       clipPathUnits="userSpaceOnUse"><path
         id="path4074"
         d="M 0,522 378,522 378,0 0,0 0,522 Z" /></clipPath><clipPath
       id="clipPath4088"
       clipPathUnits="userSpaceOnUse"><path
         id="path4090"
         d="M 0,522 378,522 378,0 0,0 0,522 Z" /></clipPath><clipPath
       id="clipPath4104"
       clipPathUnits="userSpaceOnUse"><path
         id="path4106"
         d="M 0,522 378,522 378,0 0,0 0,522 Z" /></clipPath><clipPath
       id="clipPath4120"
       clipPathUnits="userSpaceOnUse"><path
         id="path4122"
         d="M 0,522 378,522 378,0 0,0 0,522 Z" /></clipPath><clipPath
       id="clipPath4136"
       clipPathUnits="userSpaceOnUse"><path
         id="path4138"
         d="M 0,522 378,522 378,0 0,0 0,522 Z" /></clipPath><clipPath
       id="clipPath4152"
       clipPathUnits="userSpaceOnUse"><path
         id="path4154"
         d="M 0,522 378,522 378,0 0,0 0,522 Z" /></clipPath><clipPath
       id="clipPath4168"
       clipPathUnits="userSpaceOnUse"><path
         id="path4170"
         d="M 0,522 378,522 378,0 0,0 0,522 Z" /></clipPath><clipPath
       id="clipPath4184"
       clipPathUnits="userSpaceOnUse"><path
         id="path4186"
         d="M 0,522 378,522 378,0 0,0 0,522 Z" /></clipPath><clipPath
       id="clipPath4200"
       clipPathUnits="userSpaceOnUse"><path
         id="path4202"
         d="M 0,522 378,522 378,0 0,0 0,522 Z" /></clipPath><clipPath
       id="clipPath4216"
       clipPathUnits="userSpaceOnUse"><path
         id="path4218"
         d="M 0,522 378,522 378,0 0,0 0,522 Z" /></clipPath><clipPath
       id="clipPath4232"
       clipPathUnits="userSpaceOnUse"><path
         id="path4234"
         d="M 0,522 378,522 378,0 0,0 0,522 Z" /></clipPath><clipPath
       id="clipPath4248"
       clipPathUnits="userSpaceOnUse"><path
         id="path4250"
         d="M 0,522 378,522 378,0 0,0 0,522 Z" /></clipPath><clipPath
       id="clipPath4264"
       clipPathUnits="userSpaceOnUse"><path
         id="path4266"
         d="M 0,522 378,522 378,0 0,0 0,522 Z" /></clipPath><clipPath
       id="clipPath4280"
       clipPathUnits="userSpaceOnUse"><path
         id="path4282"
         d="M 0,522 378,522 378,0 0,0 0,522 Z" /></clipPath><clipPath
       id="clipPath4296"
       clipPathUnits="userSpaceOnUse"><path
         id="path4298"
         d="M 0,522 378,522 378,0 0,0 0,522 Z" /></clipPath><clipPath
       id="clipPath4312"
       clipPathUnits="userSpaceOnUse"><path
         id="path4314"
         d="M 0,522 378,522 378,0 0,0 0,522 Z" /></clipPath><clipPath
       id="clipPath4328"
       clipPathUnits="userSpaceOnUse"><path
         id="path4330"
         d="M 0,522 378,522 378,0 0,0 0,522 Z" /></clipPath><clipPath
       id="clipPath4344"
       clipPathUnits="userSpaceOnUse"><path
         id="path4346"
         d="M 0,522 378,522 378,0 0,0 0,522 Z" /></clipPath><clipPath
       id="clipPath4360"
       clipPathUnits="userSpaceOnUse"><path
         id="path4362"
         d="M 0,522 378,522 378,0 0,0 0,522 Z" /></clipPath><clipPath
       id="clipPath4376"
       clipPathUnits="userSpaceOnUse"><path
         id="path4378"
         d="M 0,522 378,522 378,0 0,0 0,522 Z" /></clipPath><clipPath
       id="clipPath4392"
       clipPathUnits="userSpaceOnUse"><path
         id="path4394"
         d="M 0,522 378,522 378,0 0,0 0,522 Z" /></clipPath><clipPath
       id="clipPath4408"
       clipPathUnits="userSpaceOnUse"><path
         id="path4410"
         d="M 0,522 378,522 378,0 0,0 0,522 Z" /></clipPath><clipPath
       id="clipPath4424"
       clipPathUnits="userSpaceOnUse"><path
         id="path4426"
         d="M 0,522 378,522 378,0 0,0 0,522 Z" /></clipPath><clipPath
       id="clipPath4440"
       clipPathUnits="userSpaceOnUse"><path
         id="path4442"
         d="M 0,522 378,522 378,0 0,0 0,522 Z" /></clipPath><clipPath
       id="clipPath4456"
       clipPathUnits="userSpaceOnUse"><path
         id="path4458"
         d="M 0,522 378,522 378,0 0,0 0,522 Z" /></clipPath><clipPath
       id="clipPath4500"
       clipPathUnits="userSpaceOnUse"><path
         id="path4502"
         d="M 0,522 378,522 378,0 0,0 0,522 Z" /></clipPath><clipPath
       id="clipPath4516"
       clipPathUnits="userSpaceOnUse"><path
         id="path4518"
         d="M 0,522 378,522 378,0 0,0 0,522 Z" /></clipPath><clipPath
       id="clipPath4532"
       clipPathUnits="userSpaceOnUse"><path
         id="path4534"
         d="M 0,522 378,522 378,0 0,0 0,522 Z" /></clipPath><clipPath
       id="clipPath4548"
       clipPathUnits="userSpaceOnUse"><path
         id="path4550"
         d="M 0,522 378,522 378,0 0,0 0,522 Z" /></clipPath><clipPath
       id="clipPath4594"
       clipPathUnits="userSpaceOnUse"><path
         id="path4596"
         d="M 0,522 378,522 378,0 0,0 0,522 Z" /></clipPath><clipPath
       id="clipPath4612"
       clipPathUnits="userSpaceOnUse"><path
         id="path4614"
         d="M 0,522 378,522 378,0 0,0 0,522 Z" /></clipPath></defs><g
     transform="matrix(1.25,0,0,-1.25,0,1700)"
     id="g3344"><g
       transform="matrix(4.2594646,0,0,4.2594646,1.6,1748.2405)"
       id="g3346"><path
         id="path3348"
         style="fill:#88aeba;fill-opacity:1;fill-rule:nonzero;stroke:none"
         d="m 0,0 0,-58.216 0.163,-85.991 0,-46.271 L 378,-182.103 378,0 0,0 Z" /></g><g
       transform="matrix(4.2594646,0,0,4.2594646,1.6,-475.2)"
       id="g3414"><g
         clip-path="url(#clipPath3418)"
         id="g3416"><g
           transform="translate(74.4762,379.53)"
           id="g3422"><path
             id="path3424"
             style="fill:#fbf6e2;fill-opacity:1;fill-rule:nonzero;stroke:none"
             d="m 0,0 c 0,0 -1.512,2.647 -3.36,5.881 -1.848,3.235 -2.36,6.498 -1.138,7.251 1.222,0.753 2.888,1.492 3.703,1.643 0.814,0.15 3.98,0.52 7.035,0.821 3.055,0.301 6.221,1.657 7.035,3.012 0.815,1.355 2.481,3.573 3.703,4.928 1.222,1.356 3.722,2.958 5.555,3.56 1.833,0.603 4.332,0.48 5.554,-0.273 1.222,-0.753 2.722,-2.232 3.333,-3.286 0.611,-1.054 3.622,-4.317 6.692,-7.25 3.07,-2.934 6.332,-4.965 7.249,-4.513 0.916,0.452 2.082,1.13 2.591,1.506 0.51,0.376 1.593,0.746 2.407,0.821 0.815,0.076 2.065,0.076 2.778,0 0.712,-0.075 1.962,-0.568 2.777,-1.095 0.815,-0.526 2.398,-1.081 3.518,-1.232 1.12,-0.151 2.536,0.589 3.148,1.643 0.611,1.054 2.277,2.04 3.702,2.191 1.426,0.15 3.175,0.212 3.888,0.136 0.713,-0.075 1.879,-0.445 2.592,-0.821 0.713,-0.376 2.046,-1.116 2.962,-1.643 0.917,-0.527 2.584,-0.219 3.704,0.685 1.12,0.903 2.703,1.642 3.517,1.642 0.815,0 2.065,-0.431 2.778,-0.958 0.713,-0.527 1.546,-1.451 1.851,-2.054 0.306,-0.602 0.389,-1.588 0.185,-2.19 C 87.555,9.803 87.057,9.17 86.652,8.998 86.246,8.827 85.663,8.58 85.356,8.45 85.049,8.32 85.547,8.091 86.463,7.941 87.38,7.79 88.546,7.667 89.055,7.667 c 0.509,0 1.259,0.246 1.667,0.547 0.407,0.302 0.907,1.102 1.11,1.78 0.204,0.678 0.87,1.294 1.481,1.369 0.612,0.075 1.695,-0.048 2.408,-0.274 0.712,-0.226 1.545,-0.842 1.851,-1.369 0.305,-0.527 0.305,-1.389 0,-1.916 -0.306,-0.527 -0.556,-1.328 -0.556,-1.78 0,-0.452 0.083,-1.068 0.185,-1.369 0.102,-0.301 1.268,-0.917 2.592,-1.369 1.323,-0.452 3.656,-1.129 5.184,-1.506 1.527,-0.376 3.36,-0.499 4.073,-0.273 0.713,0.226 1.629,0.78 2.037,1.232 0.407,0.452 1.157,0.821 1.666,0.821 0.51,0 1.51,-0.369 2.222,-0.821 0.713,-0.452 1.546,-1.499 1.852,-2.327 0.305,-0.829 0.889,-1.137 1.296,-0.685 0.408,0.452 1.324,1.068 2.037,1.369 0.713,0.301 1.629,0.917 2.036,1.369 0.407,0.452 1.74,1.191 2.962,1.642 1.222,0.452 2.888,0.822 3.702,0.822 0.815,0 1.898,-0.431 2.407,-0.958 0.509,-0.527 1.509,-1.328 2.222,-1.78 0.713,-0.451 2.13,-1.068 3.148,-1.369 1.018,-0.301 2.685,-0.548 3.703,-0.548 1.018,0 2.767,-0.061 3.888,-0.137 1.12,-0.075 2.62,-0.321 3.333,-0.547 0.713,-0.226 1.713,-0.781 2.222,-1.233 0.509,-0.451 1.425,-1.252 2.036,-1.779 0.611,-0.527 2.027,-0.897 3.147,-0.821 1.12,0.075 2.454,0.136 2.963,0.136 0.509,0 1.592,-0.246 2.407,-0.547 0.814,-0.301 1.898,-0.732 2.407,-0.958 0.509,-0.227 1.926,-0.227 3.148,-0.001 1.222,0.226 2.555,1.089 2.962,1.917 0.407,0.829 1.574,1.814 2.592,2.191 1.018,0.376 2.185,1.177 2.592,1.779 0.407,0.603 1.241,1.219 1.852,1.369 0.611,0.151 2.027,0.274 3.148,0.274 l 3.517,0 c 0.814,0 1.73,0.493 2.036,1.096 0.305,0.602 1.388,1.095 2.407,1.095 1.018,0 2.435,0.616 3.147,1.369 0.713,0.753 1.13,1.985 0.927,2.738 -0.204,0.753 -0.037,1.924 0.37,2.601 0.407,0.678 1.823,1.356 3.147,1.506 1.323,0.151 3.323,0.274 4.443,0.274 1.121,0 3.454,-0.37 5.185,-0.821 1.731,-0.452 4.314,-1.13 5.739,-1.506 1.426,-0.377 4.258,-0.993 6.295,-1.369 2.037,-0.377 4.453,-0.993 5.369,-1.369 0.917,-0.377 1.667,0.116 1.667,1.095 0,0.979 0.583,2.58 1.295,3.559 0.713,0.979 1.963,1.78 2.777,1.78 0.815,0 1.981,0.123 2.592,0.274 0.611,0.151 1.361,0.705 1.667,1.232 0.305,0.527 0.056,1.267 -0.555,1.643 -0.611,0.376 -1.944,0.807 -2.962,0.958 -1.018,0.151 -2.352,0.459 -2.963,0.685 -0.611,0.226 -1.694,0.411 -2.407,0.411 -0.712,0 -1.296,0.431 -1.296,0.958 0,0.527 -0.416,1.39 -0.925,1.917 -0.51,0.527 -0.76,1.512 -0.556,2.19 0.204,0.678 0.954,1.602 1.667,2.054 0.712,0.452 0.962,1.253 0.555,1.78 -0.407,0.527 -0.324,1.451 0.185,2.053 0.508,0.602 1.258,1.527 1.665,2.054 0.408,0.527 1.657,1.266 2.777,1.643 1.12,0.376 2.703,0.623 3.518,0.547 0.815,-0.075 2.731,-0.137 4.259,-0.137 l 7.405,0 c 2.545,0 5.045,0.316 5.554,0.702 0.51,0.386 0.344,1.136 -0.369,1.668 -0.713,0.531 -1.796,1.467 -2.407,2.078 -0.611,0.612 -1.11,1.848 -1.11,2.747 0,0.899 0.083,2.323 0.184,3.166 0.102,0.842 0.852,2.205 1.666,3.028 0.815,0.824 2.898,2.045 4.629,2.713 1.731,0.668 5.314,1.396 7.962,1.618 2.647,0.221 5.564,0.029 6.48,-0.428 0.917,-0.456 2.499,-1.623 3.518,-2.592 1.018,-0.97 2.267,-1.274 2.777,-0.676 0.509,0.598 1.509,1.703 2.222,2.456 0.712,0.753 2.045,1.862 2.961,2.464 0.916,0.603 2.916,1.219 4.444,1.369 1.528,0.151 4.11,0.393 5.74,0.539 1.629,0.147 3.462,0.886 4.073,1.643 0.611,0.758 1.611,1.558 2.222,1.78 0.611,0.221 1.611,0.032 2.222,-0.419 0.611,-0.452 1.861,-1.003 2.777,-1.224 0.917,-0.221 3.512,0.218 5.768,0.975 2.256,0.758 3.924,-2.919 3.707,-8.17 l -2.229,-54.011 c -0.217,-5.252 -0.394,-13.849 -0.394,-19.105 l 0,-49.682 c 0,-5.256 -4.3,-9.552 -9.556,-9.546 l -360.809,0.39 c -5.256,0.006 -10.061,4.281 -10.677,9.501 l -7.674,65.014 c -0.616,5.22 0.114,9.398 1.622,9.285 1.508,-0.113 3.116,-0.02 3.574,0.206 0.458,0.226 1.166,0.35 1.573,0.274 0.408,-0.075 0.741,-0.383 0.741,-0.685 0,-0.301 0.708,-0.732 1.573,-0.958 0.866,-0.226 2.116,-0.411 2.778,-0.411 0.662,0 1.703,0.031 2.314,0.069 0.612,0.038 1.611,0.13 2.222,0.205 0.611,0.076 1.361,0.384 1.666,0.685 0.306,0.301 0.764,0.886 1.019,1.3 0.254,0.415 0.754,0.754 1.11,0.754 0.357,0 0.899,-0.093 1.204,-0.206 0.306,-0.113 0.805,-0.359 1.111,-0.547 0.305,-0.189 0.888,-0.281 1.296,-0.206 0.407,0.076 1.032,0.014 1.389,-0.137 0.356,-0.15 1.148,-0.366 1.758,-0.479 0.611,-0.113 1.694,-0.267 2.407,-0.342 0.713,-0.076 1.38,-0.414 1.482,-0.753 0.101,-0.339 0.518,-0.801 0.925,-1.027 0.408,-0.226 1.032,-0.688 1.389,-1.026 0.356,-0.339 1.273,-0.709 2.036,-0.822 0.764,-0.113 1.847,-0.267 2.407,-0.342 0.56,-0.076 1.393,-0.291 1.852,-0.48 0.458,-0.188 1.166,-0.712 1.573,-1.164 0.407,-0.451 1.074,-1.006 1.481,-1.232 0.408,-0.226 1.075,-0.996 1.482,-1.711 0.407,-0.716 0.99,-1.578 1.296,-1.917 0.305,-0.338 0.763,-0.616 1.018,-0.616 0.255,0 0.838,-0.03 1.296,-0.068 0.459,-0.038 0.834,0.178 0.834,0.479 0,0.301 0.333,0.763 0.74,1.027 0.407,0.264 0.99,0.448 1.296,0.411 0.305,-0.038 0.597,0.116 0.648,0.342 0.051,0.226 0.926,0.411 1.944,0.411 1.018,0 2.185,-0.185 2.592,-0.411 0.408,-0.226 1.241,-0.534 1.852,-0.685 0.611,-0.151 1.319,-0.089 1.573,0.137 0.254,0.226 0.712,0.688 1.018,1.027 0.306,0.339 0.847,0.955 1.204,1.369 0.356,0.414 1.106,0.722 1.666,0.685 0.56,-0.038 1.31,0.085 1.667,0.274 0.356,0.188 1.023,0.28 1.481,0.205 0.458,-0.076 1.125,-0.168 1.481,-0.206 0.356,-0.037 1.189,-0.161 1.851,-0.274 0.662,-0.113 1.454,0.042 1.759,0.343 0.306,0.302 0.889,0.517 1.296,0.479 0.407,-0.037 1.157,0.086 1.666,0.274 0.51,0.188 1.509,0.311 2.222,0.274 0.712,-0.038 1.504,0.24 1.758,0.616 0.255,0.377 0.922,0.778 1.482,0.891 0.56,0.113 1.31,-0.072 1.666,-0.411 0.356,-0.339 0.898,-0.678 1.204,-0.753 0.305,-0.076 0.555,0.263 0.555,0.753 0,0.489 0.25,1.198 0.556,1.574 0.305,0.377 0.888,0.715 1.296,0.753 0.407,0.038 0.323,0.5 -0.186,1.027 l -0.926,0.958" /></g><g
           transform="translate(4.3174,327.6353)"
           id="g3426"><path
             id="path3428"
             style="fill:#eae9d3;fill-opacity:1;fill-rule:nonzero;stroke:none"
             d="m 0,0 c -1.942,2.148 -3.532,0.117 -3.532,-4.514 0,-4.631 3.995,-8.605 8.877,-8.831 4.883,-0.225 10.999,0.375 13.593,1.335 2.594,0.96 7.774,1.977 11.511,2.259 3.738,0.283 8.199,0.423 9.914,0.312 l 1.043,-0.004 1.181,-0.003 c 1.944,0.115 6.219,0.234 9.5,0.266 l 1.801,0.559 c 0.781,0.242 1.986,1.207 2.774,1.437 l 2.736,0.801 c 4.903,0.237 10.412,0.431 12.242,0.431 1.831,0 4.702,0.093 6.38,0.206 1.678,0.113 5.486,0.482 8.461,0.821 2.975,0.339 7.593,0.293 10.263,-0.103 2.669,-0.395 8.036,-0.996 11.927,-1.334 3.89,-0.339 7.76,-0.616 8.599,-0.616 0.839,0 2.212,0.6 3.051,1.335 0.839,0.734 2.15,1.334 2.912,1.334 0.763,0 1.824,0.185 2.358,0.411 0.534,0.226 0.596,0.78 0.139,1.232 -0.458,0.452 -1.831,1.053 -3.051,1.335 -1.221,0.283 -2.781,0.375 -3.468,0.206 -0.686,-0.17 -1.248,0.153 -1.248,0.718 0,0.565 -0.437,1.581 -0.971,2.259 -0.534,0.677 -1.657,0.816 -2.496,0.308 -0.839,-0.508 -2.212,-0.924 -3.051,-0.924 -0.839,0 -2.212,0.185 -3.052,0.411 -0.839,0.225 -1.275,0.734 -0.97,1.129 0.305,0.395 1.116,0.719 1.803,0.719 0.686,0 0.811,0.323 0.277,0.719 -0.534,0.395 -0.347,0.718 0.416,0.718 0.763,0 2.011,0.139 2.774,0.308 0.763,0.17 0.451,0.447 -0.693,0.617 -1.145,0.169 -1.769,0.585 -1.387,0.924 0.381,0.338 -0.306,0.477 -1.526,0.307 -1.221,-0.169 -2.656,-0.03 -3.19,0.309 -0.534,0.338 -1.47,0.431 -2.08,0.205 -0.61,-0.226 -1.422,0.098 -1.803,0.719 -0.381,0.621 -0.444,1.499 -0.139,1.951 0.305,0.451 0.056,0.729 -0.555,0.616 -0.61,-0.113 -1.546,-0.483 -2.08,-0.822 C 98.706,9.728 98.207,8.896 98.13,8.218 98.054,7.54 97.555,6.755 97.021,6.473 96.487,6.19 95.675,5.636 95.218,5.24 94.76,4.845 94.198,4.244 93.969,3.905 93.741,3.567 92.68,3.428 91.612,3.598 90.544,3.767 89.42,4.322 89.115,4.83 88.81,5.338 88.748,6.493 88.977,7.397 89.205,8.301 89.143,9.132 88.838,9.245 88.533,9.358 88.096,8.942 87.867,8.321 87.638,7.7 87.077,6.683 86.619,6.062 86.161,5.441 85.35,4.517 84.816,4.008 84.282,3.5 83.658,2.807 83.429,2.468 83.2,2.129 82.389,1.852 81.626,1.852 c -0.763,0 -1.824,0.416 -2.358,0.924 -0.534,0.508 -0.971,1.479 -0.971,2.157 0,0.677 0.375,1.555 0.832,1.95 0.458,0.396 1.082,1.088 1.388,1.54 0.305,0.452 0.055,0.591 -0.555,0.309 C 79.352,8.449 78.54,7.987 78.159,7.705 77.778,7.422 77.278,7.561 77.049,8.013 76.821,8.465 76.633,9.25 76.633,9.758 c 0,0.509 -0.374,0.555 -0.832,0.103 C 75.343,9.409 74.906,8.763 74.83,8.424 74.754,8.085 74.629,7.53 74.553,7.191 74.477,6.852 74.04,6.898 73.582,7.294 73.124,7.689 72.251,8.29 71.641,8.629 c -0.611,0.339 -1.797,1.078 -2.636,1.643 -0.839,0.564 -1.026,1.35 -0.416,1.745 0.61,0.396 1.547,0.719 2.081,0.719 0.534,0 0.783,0.508 0.555,1.13 -0.229,0.621 -0.229,1.452 0,1.848 0.228,0.395 0.79,0.903 1.247,1.129 0.458,0.226 1.457,0.919 2.22,1.54 0.763,0.622 2.136,1.222 3.051,1.335 0.915,0.113 2.101,0.437 2.635,0.719 0.534,0.282 1.408,0.282 1.942,0 0.534,-0.282 1.033,-0.745 1.109,-1.027 0.076,-0.282 0.201,-0.698 0.277,-0.924 0.076,-0.226 -0.519,-0.922 -1.323,-1.547 -0.805,-0.624 -1.741,-1.41 -2.081,-1.745 -0.339,-0.336 -0.493,-1.026 -0.34,-1.534 0.152,-0.508 0.527,-1.155 0.832,-1.437 0.305,-0.283 0.43,-0.052 0.278,0.513 -0.153,0.565 -0.091,1.258 0.138,1.54 0.229,0.283 0.853,0.837 1.387,1.232 0.534,0.396 1.477,1.188 2.095,1.76 l 0.263,0.396 0.318,0.482 c 0.283,0.865 1.013,1.757 1.624,1.983 0.61,0.226 1.546,0.595 2.08,0.821 0.534,0.226 1.47,0.411 2.08,0.411 l 2.635,0 c 0.839,0 1.9,-0.139 2.358,-0.308 0.458,-0.169 1.082,-0.447 1.387,-0.616 0.305,-0.17 0.992,-0.539 1.525,-0.822 0.534,-0.282 0.971,-0.883 0.971,-1.334 0,-0.452 -0.312,-1.099 -0.693,-1.438 -0.381,-0.338 -1.005,-0.985 -1.387,-1.437 -0.381,-0.452 -1.005,-1.376 -1.387,-2.054 -0.381,-0.678 -0.381,-1.371 0,-1.54 0.382,-0.169 1.068,-0.031 1.526,0.308 0.457,0.339 1.206,0.986 1.664,1.437 0.458,0.452 1.144,1.376 1.526,2.054 0.381,0.677 1.379,1.417 2.218,1.643 0.839,0.225 1.651,0.826 1.803,1.335 0.153,0.508 0.777,0.97 1.388,1.026 0.61,0.057 1.234,-0.22 1.387,-0.616 0.152,-0.395 0.714,-0.718 1.248,-0.718 0.534,0 1.283,0.415 1.664,0.924 0.381,0.508 1.13,0.739 1.664,0.513 0.534,-0.226 1.845,-0.272 2.913,-0.103 1.068,0.17 2.253,-0.246 2.635,-0.924 0.382,-0.677 1.193,-0.77 1.803,-0.205 0.61,0.565 1.421,1.258 1.803,1.54 0.381,0.283 -0.118,0.329 -1.109,0.103 -0.992,-0.226 -2.115,0.097 -2.497,0.719 -0.382,0.621 -1.505,0.852 -2.496,0.513 -0.992,-0.339 -2.365,-0.154 -3.051,0.411 -0.687,0.565 -1.935,1.211 -2.774,1.437 -0.839,0.226 -2.275,0.411 -3.19,0.411 -0.916,0 -2.102,-0.277 -2.636,-0.616 -0.533,-0.339 -1.407,-0.894 -1.941,-1.232 -0.534,-0.339 -1.658,-0.524 -2.497,-0.411 -0.839,0.113 -1.962,0.482 -2.496,0.821 -0.534,0.339 -0.534,0.801 0,1.027 0.534,0.226 0.784,0.827 0.555,1.335 -0.229,0.509 -0.791,1.248 -1.248,1.643 -0.458,0.395 -0.895,1.134 -0.971,1.643 -0.077,0.508 -0.826,0.878 -1.665,0.821 -0.839,-0.056 -2.149,-0.148 -2.912,-0.205 -0.763,-0.057 -1.512,0.498 -1.665,1.232 -0.152,0.734 -0.839,1.705 -1.525,2.156 -0.687,0.452 -1.555,0.273 -1.93,-0.397 L 85.509,31.013 C 85.42,30.76 85.347,30.233 85.232,29.986 L 85.03,29.552 c -0.499,-0.665 -1.532,-1.394 -2.294,-1.62 -0.763,-0.225 -0.451,-0.41 0.693,-0.41 1.144,0 2.954,-0.139 4.022,-0.309 1.068,-0.169 2.815,-0.308 3.884,-0.308 1.068,0 2.316,-0.369 2.773,-0.821 0.458,-0.452 0.708,-1.144 0.555,-1.54 -0.153,-0.395 -0.777,-0.95 -1.387,-1.232 -0.61,-0.282 -1.92,-0.652 -2.912,-0.821 -0.992,-0.17 -2.49,-0.308 -3.329,-0.308 -0.839,0 -1.838,-0.185 -2.219,-0.411 -0.382,-0.226 -1.255,-0.272 -1.942,-0.103 -0.686,0.17 -1.934,0.123 -2.773,-0.103 -0.84,-0.226 -2.15,-0.503 -2.913,-0.616 -0.763,-0.113 -2.073,-0.621 -2.912,-1.129 -0.839,-0.508 -2.213,-1.525 -3.052,-2.259 -0.839,-0.734 -2.149,-1.658 -2.912,-2.054 -0.763,-0.395 -1.761,-1.181 -2.219,-1.745 -0.458,-0.565 -0.832,-1.812 -0.832,-2.772 0,-0.961 -0.063,-2.208 -0.139,-2.773 C 65.046,7.653 64.484,7.145 63.874,7.088 63.263,7.032 62.39,6.801 61.932,6.575 61.474,6.35 60.351,6.35 59.436,6.575 58.52,6.801 56.835,7.217 55.691,7.499 c -1.144,0.283 -2.143,1.022 -2.219,1.643 -0.077,0.621 -0.825,1.13 -1.664,1.13 -0.839,0 -1.401,0.924 -1.248,2.053 0.152,1.129 0.651,2.331 1.109,2.67 0.458,0.339 -0.291,0.708 -1.664,0.821 -1.373,0.114 -2.934,0.206 -3.467,0.206 -0.534,0 -1.907,-0.185 -3.052,-0.411 -1.144,-0.226 -2.954,-0.457 -4.022,-0.513 -1.068,-0.057 -1.63,0.313 -1.248,0.821 0.381,0.508 1.255,1.247 1.942,1.643 0.686,0.395 1.872,0.903 2.635,1.129 0.763,0.226 2.198,0.457 3.19,0.514 0.991,0.056 0.959,0.852 -0.071,1.768 l -0.9,0.183 -1.023,0.207 C 42.263,20.91 40.289,20.216 39.603,19.821 38.916,19.425 37.294,18.224 35.997,17.151 34.7,16.078 33.515,14.784 33.362,14.276 33.209,13.768 32.835,12.335 32.529,11.093 32.224,9.851 31.592,7.483 31.123,5.832 L 30.034,5.343 29.378,5.049 C 28.06,5.324 27.044,6.334 27.12,7.294 27.197,8.254 26.333,9.72 25.2,10.552 L 24.486,10.272 23.381,9.839 C 23.836,8.043 24.208,6.02 24.208,5.343 24.208,4.665 23.834,3.741 23.376,3.289 22.918,2.838 21.857,2.745 21.018,3.084 20.179,3.423 17.982,3.981 16.135,4.323 L 15.054,4.111 14.384,3.979 C 13.532,3.374 12.835,2.186 12.835,1.338 c 0,-0.847 -0.957,-1.82 -2.127,-2.162 l -0.646,0.212 -0.74,0.242 C 8.814,0.626 7.567,2.24 6.551,3.215 L 5.623,3.289 C 5.067,3.334 4.055,2.776 3.682,2.468 3.016,1.916 2.463,0.006 1.463,0.004 L 0,0 Z" /></g><g
           transform="translate(-0.5045,357.9639)"
           id="g3430"><path
             id="path3432"
             style="fill:#eae9d3;fill-opacity:1;fill-rule:nonzero;stroke:none"
             d="M 0,0 C 0,0 0.968,2.204 1.29,2.327 1.827,2.533 4.427,1.812 5.029,1.875 5.541,1.929 6.866,2.614 7.192,2.327 7.52,2.041 7.968,1.352 8.34,1.095 8.756,0.808 9.784,0.363 10.348,0.273 c 0.63,-0.1 1.94,-0.051 2.581,0 0.937,0.076 3.728,0.411 3.728,0.411 0,0 0.943,0.235 1.15,0.411 0.481,0.41 0.323,1.679 0.858,2.054 0.363,0.253 1.521,0.305 2.008,0.205 0.555,-0.115 1.475,-0.661 2.008,-0.822 0.337,-0.101 1.076,-0.155 1.436,-0.205 0.58,-0.079 2.292,-0.41 2.292,-0.41 l 3.729,0 c 0,0 -4.225,0.137 -4.874,-0.617 -0.394,-0.456 1.302,-1.621 0.858,-2.054 -0.475,-0.462 -2.355,0.36 -3.153,0.411 -0.714,0.046 -2.87,0 -2.87,0 0,0 -2.18,-0.048 -2.866,-0.205 -0.551,-0.126 -2.01,-0.821 -2.01,-0.821 0,0 -1.946,0.308 -2.579,0.205 -0.659,-0.107 -2.295,-1.027 -2.295,-1.027 L 9.487,-3.834 c 0,0 -1.051,1.567 -1.719,1.849 -0.556,0.234 -1.957,0.117 -2.581,0 C 4.591,-2.098 3.538,-2.653 3.179,-3.012 2.743,-3.449 -0.838,-5.066 -0.838,-5.066 L 0,0 Z" /></g><g
           transform="translate(139.1997,329.6925)"
           id="g3434"><path
             id="path3436"
             style="fill:#eae9d3;fill-opacity:1;fill-rule:nonzero;stroke:none"
             d="m 0,0 c 1.348,-1.523 9.086,2.634 9.086,2.634 0.037,0.02 0.067,10e-4 0.067,-0.041 l 0,-2.311 C 9.153,0.24 9.13,0.18 9.101,0.15 c 0,0 -1.057,-1.128 -1.057,-1.588 0,-0.459 2.219,-1.062 2.219,-1.642 0,-0.581 0.263,-1.979 0.263,-1.979 0.008,-0.041 0.042,-0.095 0.076,-0.12 l 2.096,-1.552 c 0.033,-0.025 0.094,-0.055 0.134,-0.067 l 2.628,-0.779 c 0.04,-0.011 0.105,-0.034 0.144,-0.05 l 5.406,-2.201 c 0.039,-0.016 0.086,-0.06 0.104,-0.098 l 1.598,-3.353 c 0.018,-0.038 0.063,-0.052 0.1,-0.032 l 2.085,1.158 c 0.037,0.02 0.084,0.067 0.105,0.103 l 1.588,2.743 c 0.021,0.036 0.067,0.085 0.102,0.109 l 2.924,1.968 c 0.035,0.023 0.083,0.071 0.106,0.106 l 1.857,2.748 c 0.023,0.035 0.072,0.081 0.109,0.102 l 2.363,1.361 c 0.036,0.021 0.095,0.058 0.13,0.081 l 2.647,1.763 c 0.035,0.023 0.055,0.076 0.045,0.116 l -0.795,3.138 c -0.01,0.04 -0.051,0.087 -0.09,0.102 L 33.079,3.463 C 33.04,3.478 33.004,3.525 32.999,3.567 L 32.74,5.674 C 32.735,5.716 32.696,5.753 32.654,5.756 L 30.311,5.949 C 30.269,5.953 30.2,5.951 30.159,5.946 L 26.981,5.554 C 26.939,5.549 26.871,5.543 26.829,5.542 l -5.672,-0.2 C 21.115,5.34 21.05,5.354 21.012,5.372 L 16.434,7.566 C 16.396,7.584 16.38,7.629 16.399,7.667 l 0.764,1.506 c 0.019,0.038 0.069,0.068 0.111,0.068 l 2.898,0 c 0.042,0 0.092,0.031 0.112,0.068 l 1.316,2.534 c 0.019,0.038 0.005,0.085 -0.032,0.105 l -2.085,1.158 c -0.036,0.021 -0.101,0.037 -0.143,0.037 l -3.73,0 c -0.042,0 -0.077,0.035 -0.077,0.077 l 0,3.338 c 0,0.042 0.022,0.103 0.048,0.136 l 1.568,1.934 c 0.027,0.033 0.075,0.081 0.108,0.108 l 3.209,2.573 c 0.033,0.027 0.094,0.048 0.136,0.048 l 4.84,0 c 0.042,0 0.109,0.013 0.148,0.028 l 4.573,1.793 c 0.039,0.015 0.093,0.054 0.12,0.087 L 31.85,25.2 c 0.027,0.032 0.059,0.092 0.073,0.131 l 1.338,3.963 c 0.013,0.039 0.059,0.069 0.101,0.066 l 2.621,-0.193 c 0.042,-0.003 0.111,-0.006 0.153,-0.006 l 1.511,0 c 0.042,0 0.107,0.015 0.145,0.034 l 3.191,1.575 c 0.038,0.018 0.1,0.019 0.138,0.001 l 2.913,-1.372 c 0.038,-0.018 0.075,-0.067 0.082,-0.108 l 0.253,-1.492 c 0.007,-0.042 0.04,-0.096 0.074,-0.121 l 0.985,-0.73 c 0.034,-0.025 0.029,-0.055 -0.011,-0.067 L 42.79,26.102 c -0.04,-0.012 -0.044,-0.039 -0.007,-0.06 l 1.255,-0.744 c 0.036,-0.021 0.099,-0.031 0.139,-0.021 l 2.348,0.58 c 0.041,0.01 0.106,0.03 0.146,0.045 l 0.966,0.358 c 0.04,0.014 0.106,0.026 0.149,0.026 l 2.066,0 c 0.042,0 0.084,0.034 0.093,0.075 l 0.243,1.082 c 0.01,0.041 -0.014,0.089 -0.053,0.106 l -4.02,1.786 c -0.039,0.017 -0.097,0.053 -0.13,0.079 l -2.654,2.163 c -0.033,0.026 -0.085,0.072 -0.116,0.1 l -2.107,1.95 c -0.031,0.029 -0.023,0.062 0.017,0.074 l 1.241,0.367 c 0.04,0.012 0.039,0.029 -0.002,0.038 L 37.798,35.1 c -0.041,0.009 -0.109,0.016 -0.151,0.016 l -3.453,0 c -0.042,0 -0.099,-0.026 -0.126,-0.058 L 31.393,31.889 C 31.366,31.857 31.331,31.799 31.314,31.76 L 29.987,28.615 C 29.97,28.576 29.943,28.513 29.926,28.475 L 28.601,25.534 C 28.584,25.496 28.536,25.459 28.494,25.452 L 20.046,24.04 c -0.041,-0.007 -0.109,-0.013 -0.151,-0.013 l -7.337,0 c -0.042,0 -0.109,0.01 -0.15,0.021 l -6.51,1.807 c -0.041,0.011 -0.107,0.031 -0.147,0.043 l -5.124,1.597 c -0.04,0.013 -0.081,0.056 -0.091,0.097 l -0.518,2.111 c -0.01,0.041 -0.047,0.092 -0.083,0.114 L -1.6,30.764 c -0.036,0.022 -0.093,0.019 -0.126,-0.006 L -4.377,28.796 C -4.411,28.771 -4.466,28.73 -4.5,28.705 L -5.764,27.769 C -5.798,27.744 -5.859,27.72 -5.901,27.716 L -9.91,27.32 c -0.042,-0.004 -0.093,0.023 -0.114,0.059 l -1.311,2.331 c -0.021,0.037 -0.071,0.076 -0.112,0.087 l -2.903,0.782 c -0.041,0.011 -0.051,0.045 -0.022,0.075 l 1.837,1.943 c 0.029,0.03 0.084,0.07 0.122,0.088 l 5.132,2.399 c 0.038,0.017 0.074,0.066 0.081,0.107 l 0.53,3.341 c 0.007,0.041 -0.018,0.06 -0.056,0.041 l -3.47,-1.779 c -0.037,-0.019 -0.097,-0.053 -0.132,-0.075 l -1.813,-1.151 c -0.035,-0.023 -0.097,-0.052 -0.137,-0.066 l -3.461,-1.183 c -0.04,-0.013 -0.083,-0.057 -0.095,-0.098 l -1.342,-4.371 c -0.012,-0.04 -0.014,-0.106 -0.003,-0.147 l 1.072,-4.164 c 0.01,-0.041 0.047,-0.094 0.082,-0.117 l 3.202,-2.173 c 0.035,-0.024 0.098,-0.042 0.14,-0.041 l 7.059,0.201 c 0.042,0.001 0.11,-0.006 0.151,-0.015 L 1.312,21.786 C 1.353,21.776 1.39,21.734 1.395,21.692 L 1.933,16.711 C 1.937,16.669 1.939,16.6 1.936,16.558 L 1.668,11.987 C 1.666,11.945 1.688,11.886 1.717,11.856 L 4.94,8.475 C 4.969,8.445 5.027,8.426 5.068,8.433 l 5.951,1.001 c 0.042,0.007 0.072,-0.021 0.068,-0.063 L 10.824,6.648 C 10.82,6.606 10.788,6.553 10.753,6.53 L 8.385,4.971 C 8.35,4.947 8.29,4.914 8.252,4.896 L 3.674,2.703 C 3.636,2.685 3.574,2.656 3.535,2.639 3.535,2.639 -0.699,0.789 0,0" /></g><g
           transform="translate(76.7849,383.3773)"
           id="g3438"><path
             id="path3440"
             style="fill:#eae9d3;fill-opacity:1;fill-rule:nonzero;stroke:none"
             d="m 0,0 c 0.298,0.514 1.028,1.354 1.622,1.868 0.595,0.513 1.568,1.113 2.163,1.334 0.594,0.22 1.73,0.52 2.523,0.667 0.793,0.147 2.415,0.267 3.604,0.267 1.19,0 2.974,0.24 3.965,0.534 0.991,0.293 2.45,0.533 3.243,0.533 0.793,0 1.685,0.721 1.983,1.601 0.297,0.881 1.27,2.262 2.162,3.069 0.893,0.807 2.596,2.188 3.785,3.069 1.19,0.88 2.811,1.661 3.604,1.734 0.793,0.073 2.009,0.013 2.703,-0.133 0.694,-0.147 0.613,-0.507 -0.18,-0.801 -0.793,-0.293 -2.496,-0.894 -3.785,-1.334 -1.288,-0.44 -2.748,-1.401 -3.243,-2.135 C 23.653,9.539 23.086,8.159 22.887,7.205 22.689,6.251 22.365,4.87 22.167,4.136 21.968,3.402 20.914,2.801 19.824,2.801 l -3.965,0 c -1.09,0 -2.794,-0.06 -3.785,-0.133 C 11.083,2.595 9.38,2.535 8.29,2.535 7.2,2.535 5.821,2.115 5.226,1.601 4.631,1.087 3.901,-0.234 3.604,-1.334 3.307,-2.435 2.982,-3.816 2.883,-4.403 2.785,-4.99 2.217,-4.99 1.622,-4.403 1.027,-3.816 0.297,-2.795 0,-2.135 -0.298,-1.474 -0.298,-0.514 0,0" /></g><g
           transform="translate(129.8785,378.4317)"
           id="g3442"><path
             id="path3444"
             style="fill:#eae9d3;fill-opacity:1;fill-rule:nonzero;stroke:none"
             d="m 0,0 c 1.189,-0.073 2.73,0.167 3.424,0.534 0.694,0.367 2.072,0.667 3.064,0.667 l 4.144,0 c 1.289,0 3.397,-0.24 4.686,-0.534 1.288,-0.293 2.748,-0.233 3.244,0.134 0.496,0.367 1.631,0.847 2.523,1.067 0.892,0.22 2.595,0.22 3.784,0 1.19,-0.22 2.568,-0.82 3.064,-1.334 C 28.429,0.02 28.266,-0.4 27.572,-0.4 26.878,-0.4 25.5,-0.46 24.509,-0.534 23.518,-0.607 21.572,-1.267 20.184,-2.001 18.796,-2.735 16.768,-2.675 15.678,-1.868 14.588,-1.061 12.966,-0.4 12.074,-0.4 11.182,-0.4 9.479,-0.46 8.29,-0.534 7.1,-0.607 4.749,-1.267 3.064,-2.001 1.379,-2.735 -0.486,-4.116 -1.081,-5.07 -1.676,-6.024 -3.46,-6.805 -5.046,-6.805 c -1.586,0 -4.587,0.361 -6.668,0.801 -2.081,0.44 -5.569,1.101 -7.749,1.468 -2.181,0.367 -2.749,0.847 -1.262,1.067 1.487,0.22 4.001,0.28 5.587,0.134 1.586,-0.147 3.532,-0.327 4.325,-0.401 0.793,-0.073 2.577,-0.253 3.964,-0.4 1.388,-0.147 2.686,0.394 2.884,1.201 0.198,0.807 0.685,1.828 1.081,2.268 C -2.487,-0.227 -1.189,0.073 0,0" /></g><g
           transform="translate(207.065,364.5349)"
           id="g3446"><path
             id="path3448"
             style="fill:#eae9d3;fill-opacity:1;fill-rule:nonzero;stroke:none"
             d="m 0,0 c 0.712,0.376 2.626,1.054 4.253,1.506 1.628,0.452 3.958,0.575 5.178,0.273 1.22,-0.301 2.635,-1.903 3.144,-3.559 0.508,-1.656 2.422,-4.366 4.253,-6.023 1.83,-1.656 4.16,-2.149 5.177,-1.096 1.017,1.054 2.765,2.225 3.884,2.601 1.119,0.377 3.949,0.87 6.288,1.095 2.339,0.226 4.919,1.15 5.732,2.054 0.814,0.904 2.728,1.951 4.253,2.327 1.525,0.377 4.105,0.623 5.732,0.548 1.628,-0.076 3.209,-0.815 3.514,-1.643 0.306,-0.828 0.056,-2.122 -0.554,-2.875 -0.61,-0.753 -2.192,-1.307 -3.514,-1.232 -1.323,0.075 -3.986,-0.664 -5.918,-1.643 -1.932,-0.979 -3.929,-2.581 -4.438,-3.56 -0.508,-0.979 -3.005,-2.581 -5.547,-3.559 -2.543,-0.979 -6.87,-2.334 -9.616,-3.012 -2.746,-0.678 -6.657,-0.493 -8.692,0.411 -2.034,0.904 -4.281,2.505 -4.993,3.559 -0.711,1.054 -2.874,3.642 -4.807,5.75 -1.933,2.108 -4.845,2.725 -6.473,1.369 -1.627,-1.355 -3.041,-3.942 -3.143,-5.749 -0.102,-1.807 -0.768,-4.272 -1.48,-5.477 -0.711,-1.205 -2.542,-2.375 -4.068,-2.601 -1.525,-0.226 -4.105,-0.226 -5.732,0 -1.628,0.226 -1.628,0.78 0,1.232 1.627,0.452 4.04,1.438 5.362,2.191 1.322,0.753 2.404,2.478 2.404,3.833 0,1.355 0.083,3.08 0.184,3.833 0.102,0.753 0.684,2.232 1.295,3.286 0.61,1.054 0.777,2.656 0.37,3.56 -0.407,0.903 -1.655,1.705 -2.774,1.78 -1.119,0.075 -3.116,0.938 -4.438,1.916 -1.322,0.979 -1.405,1.657 -0.184,1.506 1.22,-0.15 3.134,-0.459 4.253,-0.684 1.119,-0.226 2.95,-0.904 4.068,-1.506 1.119,-0.602 2.866,-1.095 3.883,-1.095 1.018,0 2.432,0.308 3.144,0.684" /></g><g
           transform="translate(335.6173,405.4477)"
           id="g3450"><path
             id="path3452"
             style="fill:#eae9d3;fill-opacity:1;fill-rule:nonzero;stroke:none"
             d="m 0,0 c -1.289,0.22 -3.154,0.76 -4.145,1.201 -0.992,0.44 -2.289,1.221 -2.884,1.734 -0.595,0.514 -1.487,1.715 -1.983,2.669 -0.496,0.955 -0.253,2.816 0.54,4.136 0.794,1.321 2.091,2.641 2.885,2.934 0.793,0.294 3.226,0.534 5.406,0.534 2.181,0 4.289,-1.441 4.686,-3.202 0.396,-1.761 3.154,-3.442 6.128,-3.736 2.973,-0.293 7.352,1.268 9.731,3.469 2.379,2.202 5.947,4.183 7.929,4.404 1.983,0.22 5.146,0.4 7.029,0.4 1.883,0 4.235,0.72 5.226,1.601 0.992,0.88 2.695,1.481 3.785,1.334 1.09,-0.147 0.522,-1.408 -1.262,-2.802 -1.784,-1.394 -4.136,-2.475 -5.226,-2.401 -1.091,0.073 -2.389,-0.347 -2.885,-0.934 -0.495,-0.588 -0.495,-1.608 0,-2.269 0.496,-0.66 2.118,-1.561 3.605,-2.001 C 40.052,6.631 41.837,5.25 42.531,4.002 43.225,2.755 43.954,1.134 44.152,0.4 44.35,-0.334 43.296,-2.075 41.81,-3.469 40.323,-4.863 38.133,-3.783 36.944,-1.068 35.754,1.648 34.132,3.569 33.339,3.202 32.546,2.835 30.276,2.235 28.293,1.868 26.311,1.501 23.634,-0.06 22.346,-1.601 21.057,-3.142 17.408,-5.003 14.237,-5.737 11.065,-6.471 7.578,-8.933 6.488,-11.208 c -1.091,-2.274 -3.199,-4.256 -4.686,-4.403 -1.487,-0.146 -4.893,-0.386 -7.569,-0.533 -2.676,-0.147 -7.298,0.154 -10.272,0.667 -2.974,0.514 -3.947,1.054 -2.163,1.201 1.784,0.147 4.784,0.267 6.668,0.267 1.883,0 3.829,0.48 4.325,1.067 0.496,0.587 -0.64,1.428 -2.523,1.868 -1.883,0.44 -4.721,1.04 -6.307,1.334 -1.586,0.294 -3.857,0.294 -5.046,0 -1.19,-0.294 -0.784,0.127 0.901,0.934 1.685,0.807 4.929,1.288 7.209,1.067 2.28,-0.22 5.767,-1 7.749,-1.734 1.982,-0.734 4.577,-0.794 5.766,-0.134 1.19,0.661 2.244,2.282 2.344,3.603 0.099,1.321 0.018,3.122 -0.18,4.003 C 2.505,-1.121 1.289,-0.22 0,0" /></g><g
           transform="translate(307.7938,335.0033)"
           id="g3454"><path
             id="path3456"
             style="fill:#eae9d3;fill-opacity:1;fill-rule:nonzero;stroke:none"
             d="M 0,0 C 2.197,-0.82 6.086,5.635 6.086,5.635 6.107,5.671 6.146,5.673 6.172,5.64 L 7.741,3.626 C 7.767,3.593 7.784,3.532 7.78,3.49 c 0,0 -0.152,-1.36 0.158,-1.757 0.311,-0.398 2.639,-0.099 3.031,-0.602 0.393,-0.503 1.571,-1.623 1.571,-1.623 0.03,-0.029 0.089,-0.059 0.13,-0.067 l 2.882,-0.572 c 0.041,-0.008 0.109,-0.011 0.15,-0.007 l 2.806,0.299 c 0.042,0.005 0.11,0.009 0.152,0.01 l 6.177,0.094 c 0.042,0.001 0.106,-0.017 0.141,-0.039 l 3.67,-2.326 c 0.036,-0.022 0.082,-0.011 0.103,0.025 l 1.014,1.757 c 0.021,0.037 0.033,0.1 0.026,0.142 l -0.477,2.954 c -0.007,0.042 0.001,0.107 0.018,0.146 l 1.195,2.767 c 0.017,0.039 0.028,0.105 0.024,0.147 L 30.304,7.894 C 30.301,7.936 30.315,8 30.335,8.037 l 1.117,2.036 c 0.02,0.036 0.051,0.098 0.068,0.137 l 1.092,2.487 c 0.017,0.038 0.005,0.092 -0.027,0.12 l -2.824,2.437 c -0.032,0.027 -0.092,0.049 -0.134,0.048 l -3.323,-0.059 c -0.042,0 -0.1,0.024 -0.129,0.054 l -1.66,1.743 c -0.029,0.03 -0.085,0.045 -0.125,0.032 l -2.155,-0.7 C 22.195,16.36 22.133,16.331 22.097,16.309 L 19.622,14.801 C 19.586,14.779 19.525,14.746 19.487,14.728 L 14.72,12.46 c -0.038,-0.018 -0.103,-0.032 -0.145,-0.03 l -5.457,0.205 c -0.042,0.002 -0.084,0.037 -0.093,0.078 l -0.357,1.581 c -0.009,0.041 0.015,0.088 0.054,0.105 l 2.503,1.069 c 0.039,0.017 0.064,0.064 0.055,0.105 l -0.57,2.676 c -0.009,0.041 -0.051,0.078 -0.092,0.081 L 8.016,18.563 C 7.974,18.567 7.908,18.556 7.869,18.54 L 4.647,17.162 C 4.608,17.145 4.555,17.159 4.529,17.192 L 2.266,20.095 C 2.24,20.128 2.22,20.19 2.221,20.232 l 0.05,2.241 c 10e-4,0.042 0.012,0.109 0.024,0.15 l 1.036,3.398 c 0.012,0.04 0.054,0.086 0.093,0.103 l 4.182,1.788 c 0.039,0.017 0.092,0.056 0.12,0.088 l 2.737,3.23 c 0.027,0.032 0.05,0.092 0.051,0.134 l 0.05,2.243 c 10e-4,0.042 -0.01,0.108 -0.026,0.147 l -1.517,3.928 c -0.015,0.039 0.005,0.082 0.045,0.095 l 2.396,0.801 c 0.04,0.013 0.104,0.037 0.143,0.054 l 1.3,0.556 c 0.039,0.016 0.089,0.059 0.113,0.093 l 1.69,2.529 c 0.023,0.035 0.077,0.062 0.119,0.061 l 3.459,-0.111 c 0.042,-10e-4 0.101,-0.026 0.131,-0.056 l 1.241,-1.214 c 0.03,-0.029 0.088,-0.06 0.13,-0.068 l 1.364,-0.27 c 0.041,-0.008 0.05,-0.039 0.02,-0.067 l -1.736,-1.634 c -0.03,-0.029 -0.021,-0.056 0.021,-0.061 l 1.603,-0.18 c 0.042,-0.005 0.102,0.013 0.135,0.04 l 1.629,1.36 c 0.032,0.027 0.081,0.074 0.109,0.106 l 0.581,0.652 c 0.028,0.031 0.083,0.07 0.121,0.087 l 1.782,0.761 c 0.039,0.017 0.055,0.061 0.036,0.098 l -0.524,1.034 c -0.019,0.037 -0.068,0.069 -0.11,0.069 l -4.699,0.059 c -0.042,0 -0.11,0.009 -0.151,0.018 l -3.779,0.894 c -0.041,0.01 -0.107,0.027 -0.148,0.039 l -3.161,0.915 c -0.04,0.011 -0.048,0.044 -0.018,0.073 l 0.812,0.764 c 0.031,0.029 0.022,0.047 -0.019,0.039 L 9.029,44.389 C 8.988,44.382 8.922,44.362 8.884,44.346 L 5.901,43.071 C 5.862,43.054 5.829,43.007 5.827,42.965 L 5.651,39.245 C 5.65,39.203 5.658,39.136 5.67,39.095 l 0.974,-3.213 c 0.012,-0.04 0.032,-0.106 0.043,-0.146 L 7.525,32.702 C 7.536,32.662 7.517,32.609 7.482,32.586 L 1.132,28.243 C 1.097,28.22 1.037,28.187 0.998,28.17 l -6.345,-2.712 c -0.039,-0.017 -0.104,-0.034 -0.146,-0.039 l -6.862,-0.845 c -0.042,-0.005 -0.111,-0.012 -0.152,-0.016 l -5.521,-0.515 c -0.042,-0.003 -0.102,0.016 -0.133,0.044 l -1.891,1.65 c -0.032,0.027 -0.092,0.054 -0.133,0.06 l -1.984,0.253 c -0.042,0.006 -0.088,-0.022 -0.102,-0.062 l -0.964,-2.661 c -0.014,-0.04 -0.037,-0.104 -0.052,-0.144 l -0.454,-1.259 c -0.015,-0.039 -0.056,-0.089 -0.093,-0.11 l -3.194,-1.819 c -0.036,-0.021 -0.096,-0.021 -0.133,0 l -2.731,1.545 c -0.037,0.02 -0.101,0.033 -0.142,0.027 l -3.046,-0.398 c -0.042,-0.005 -0.072,0.024 -0.067,0.066 l 0.277,2.346 c 0.005,0.041 0.029,0.103 0.053,0.138 l 2.811,3.96 c 0.025,0.035 0.027,0.093 0.006,0.129 l -1.8,3.097 c -0.021,0.036 -0.057,0.037 -0.08,10e-4 l -1.792,-2.807 c -0.022,-0.035 -0.055,-0.095 -0.073,-0.133 l -0.785,-1.648 c -0.018,-0.038 -0.057,-0.094 -0.086,-0.124 L -36.8,23.902 c -0.029,-0.03 -0.04,-0.087 -0.023,-0.125 l 1.79,-4.286 c 0.016,-0.038 0.056,-0.092 0.088,-0.12 l 3.757,-3.224 c 0.032,-0.028 0.092,-0.056 0.133,-0.062 l 4.258,-0.7 c 0.041,-0.006 0.106,0.002 0.144,0.02 l 5.969,2.783 c 0.038,0.018 0.103,0.038 0.145,0.044 l 6.963,1.121 c 0.041,0.006 0.098,-0.013 0.127,-0.044 l 3.845,-4.129 c 0.028,-0.031 0.071,-0.084 0.096,-0.119 l 2.861,-4.068 c 0.025,-0.034 0.077,-0.073 0.117,-0.087 l 5.095,-1.742 c 0.04,-0.013 0.101,-0.005 0.136,0.019 l 4.466,3.061 c 0.034,0.024 0.081,0.015 0.104,-0.02 L 4.889,9.759 C 4.912,9.724 4.917,9.664 4.9,9.626 L 3.91,7.418 C 3.893,7.38 3.859,7.32 3.835,7.286 L 1.364,3.71 C 1.34,3.675 1.299,3.62 1.274,3.586 1.274,3.586 -1.138,0.424 0,0" /></g><g
           transform="translate(253.481,331.9519)"
           id="g3458"><path
             id="path3460"
             style="fill:#eae9d3;fill-opacity:1;fill-rule:nonzero;stroke:none"
             d="M 0,0 C 1.221,-0.075 2.802,0.171 3.513,0.548 4.225,0.924 5.64,1.232 6.657,1.232 l 4.253,0 c 1.322,0 3.486,-0.247 4.808,-0.548 1.322,-0.301 2.82,-0.239 3.329,0.137 0.508,0.377 1.673,0.87 2.589,1.096 0.915,0.225 2.663,0.225 3.883,0 1.22,-0.226 2.635,-0.842 3.144,-1.37 0.509,-0.527 0.343,-0.958 -0.369,-0.958 -0.713,0 -2.128,-0.061 -3.145,-0.137 -1.017,-0.075 -3.014,-0.753 -4.438,-1.506 -1.424,-0.753 -3.504,-0.691 -4.622,0.137 -1.119,0.828 -2.783,1.506 -3.698,1.506 -0.915,0 -2.663,-0.061 -3.884,-0.137 C 7.286,-0.623 4.872,-1.301 3.143,-2.054 1.414,-2.807 -0.5,-4.224 -1.11,-5.203 c -0.61,-0.979 -2.441,-1.78 -4.068,-1.78 -1.627,0 -4.706,0.37 -6.842,0.822 -2.136,0.452 -5.715,1.13 -7.952,1.506 -2.237,0.376 -2.82,0.869 -1.294,1.095 1.526,0.226 4.106,0.288 5.733,0.137 1.627,-0.151 3.624,-0.336 4.438,-0.411 0.813,-0.075 2.644,-0.26 4.067,-0.411 1.424,-0.15 2.755,0.404 2.959,1.232 0.204,0.829 0.703,1.876 1.11,2.328 C -2.552,-0.233 -1.221,0.075 0,0" /></g><g
           transform="translate(354.2898,368.79)"
           id="g3462"><path
             id="path3464"
             style="fill:#eae9d3;fill-opacity:1;fill-rule:nonzero;stroke:none"
             d="m 0,0 c 0.698,0.745 1.2,1.882 1.116,2.527 -0.085,0.644 0.263,1.705 0.772,2.357 0.509,0.653 1.466,1.88 2.126,2.727 0.661,0.848 2.031,2.112 3.044,2.809 1.014,0.697 1.691,1.688 1.505,2.203 -0.187,0.514 -0.181,1.507 0.013,2.207 0.194,0.7 1.068,1.821 1.942,2.49 0.875,0.67 2.303,1.269 3.174,1.331 0.871,0.063 1.292,-0.26 0.936,-0.716 -0.356,-0.457 -0.991,-1.394 -1.412,-2.084 -0.42,-0.69 -0.627,-2.309 -0.458,-3.599 C 12.926,10.963 11.814,9.66 10.286,9.357 8.758,9.053 7.134,8.325 6.676,7.739 6.219,7.152 5.417,6.001 4.895,5.181 4.372,4.361 3.958,2.474 3.974,0.989 3.991,-0.496 4.691,-2.432 5.532,-3.313 6.372,-4.193 6.393,-5.767 5.58,-6.811 4.767,-7.854 2.795,-9.643 1.198,-10.787 c -1.596,-1.144 -4.178,-3.099 -5.738,-4.346 -1.559,-1.246 -2.427,-1.373 -1.929,-0.282 0.498,1.091 1.716,2.776 2.706,3.744 0.99,0.969 2.205,2.157 2.7,2.641 0.495,0.484 1.626,1.565 2.515,2.403 0.888,0.837 0.905,1.968 0.038,2.513 -0.867,0.544 -1.843,1.388 -2.168,1.875 C -1.003,-1.753 -0.698,-0.745 0,0" /></g><g
           transform="translate(264.4981,373.7607)"
           id="g3466"><path
             id="path3468"
             style="fill:#eae9d3;fill-opacity:1;fill-rule:nonzero;stroke:none"
             d="m 0,0 c -0.893,0.588 -0.812,1.069 0.179,1.069 0.991,0 2.37,0.601 3.064,1.335 C 3.937,3.137 4.261,4.157 3.964,4.669 3.667,5.182 3.83,6.323 4.325,7.204 4.82,8.086 6.279,8.928 7.568,9.074 8.856,9.221 11.289,9.1 12.975,8.806 14.661,8.511 17.743,7.91 19.824,7.469 c 2.082,-0.44 5.974,-1.341 8.651,-2.001 2.676,-0.66 5.352,-1.32 5.946,-1.465 0.594,-0.146 1,0.334 0.902,1.067 -0.099,0.732 0.226,1.992 0.721,2.8 0.496,0.807 1.469,1.828 2.162,2.268 0.694,0.44 2.072,0.861 3.063,0.936 0.99,0.074 1.558,0.856 1.26,1.736 -0.297,0.881 0.515,1.06 1.804,0.398 1.289,-0.661 2.344,-1.983 2.344,-2.937 0,-0.954 -0.811,-1.734 -1.802,-1.734 -0.992,0 -2.614,-0.06 -3.605,-0.134 C 40.279,8.33 39.143,7.669 38.746,6.935 38.35,6.202 37.863,4.881 37.666,4 37.468,3.12 36.657,2.399 35.864,2.399 c -0.793,0 -2.496,0.24 -3.785,0.534 -1.288,0.293 -4.127,0.834 -6.308,1.201 -2.18,0.367 -5.262,0.967 -6.848,1.334 -1.586,0.367 -4.262,0.847 -5.947,1.067 -1.685,0.221 -3.794,0.221 -4.686,0 C 7.398,6.315 6.669,5.475 6.669,4.667 6.669,3.86 6.02,2.659 5.228,1.999 4.435,1.338 3.3,0.378 2.705,-0.136 2.11,-0.649 0.893,-0.588 0,0" /></g><g
           transform="translate(158.7415,307.9197)"
           id="g3470"><path
             id="path3472"
             style="fill:#19243f;fill-opacity:1;fill-rule:nonzero;stroke:none"
             d="m 0,0 10.376,4.023 7.41,0.671 3.707,1.341 6.669,0 6.672,-4.023 10.375,2.011 6.67,5.364 7.411,4.024 3.706,-4.024 2.965,2.012 2.964,-2.012 1.482,4.694 8.893,-2.011 5.189,-4.023 5.187,-0.671 5.189,-0.671 2.965,-3.353 9.634,0 3.705,-18.104 0,-12.07 L 81.524,-36.209 0,-44.256 0,0 Z" /></g><g
           transform="translate(-1.3423,164.8665)"
           id="g3474"><path
             id="path3476"
             style="fill:#343a44;fill-opacity:1;fill-rule:nonzero;stroke:none"
             d="m 0,0 0,154.066 8.893,0.738 5.93,-1.475 4.446,5.163 2.224,5.163 2.964,2.213 7.411,4.426 2.965,2.951 6.67,-2.951 4.447,-2.95 5.188,3.688 4.446,-2.951 5.93,5.164 9.635,2.95 5.188,2.213 3.705,-3.689 11.117,2.951 6.67,1.475 2.223,-4.426 2.964,3.689 5.19,-2.951 5.187,0 11.116,0 13.341,0.738 2.964,0 2.966,-5.901 5.928,2.951 10.376,1.474 1.482,-3.687 0,-3.688 2.965,-2.951 1.483,-5.901 1.481,-5.163 0,-5.163 1.483,-5.901 2.223,-8.113 5.188,-5.901 4.447,-7.376 0.741,-5.901 9.635,0.738 0.741,-4.426 4.446,2.95 4.448,2.213 3.705,3.688 5.928,0 6.67,-2.212 5.931,3.687 4.445,4.426 3.706,1.475 4.448,-0.737 3.704,5.9 3.707,0 8.152,4.426 3.706,5.163 4.445,0 c 2.966,0 2.966,5.901 2.966,5.901 l 5.189,1.475 5.186,5.163 4.448,3.688 1.483,-4.425 5.928,1.475 7.411,-2.213 2.964,11.064 7.411,2.213 3.706,-2.213 3.707,0.738 5.928,-6.639 4.448,2.951 2.963,0 5.188,2.212 6.67,2.951 4.447,-0.738 5.929,-8.113 2.224,5.163 5.93,5.901 5.187,4.426 6.669,2.95 6.672,0 8.152,3.042 0,-154.896 L 0,0 Z" /></g><g
           transform="translate(-1.3423,151.0951)"
           id="g3478"><path
             id="path3480"
             style="fill:#b3cfca;fill-opacity:1;fill-rule:nonzero;stroke:none"
             d="m 0,0 0.278,-26.906 74.947,4.527 40.762,0.67 15.564,-0.67 26.31,-1.341 21.863,-3.689 11.117,5.7 36.474,-8.717 27.157,16.093 2.012,25.146 -18.211,9.387 -16.675,-0.67 -11.858,0 -8.523,0 -19.64,5.699 L 71.149,16.513 0,12.321 0,0.251" /></g><g
           transform="translate(1.6413,151.5145)"
           id="g3482"><path
             id="path3484"
             style="fill:#88aeba;fill-opacity:1;fill-rule:nonzero;stroke:none"
             d="M 0,0 C 0,0 1.203,-0.981 2.673,-2.18 4.143,-3.378 9.694,-4.586 15.007,-4.862 20.32,-5.139 26.24,-5.44 28.161,-5.533 30.083,-5.625 33.691,-5.7 36.178,-5.7 l 9.25,0 c 2.6,0 6.485,-0.075 8.633,-0.167 2.148,-0.093 5.848,-0.243 8.222,-0.336 2.374,-0.092 5.426,-0.394 6.783,-0.671 1.356,-0.276 3.483,-0.427 4.727,-0.335 1.243,0.093 3.648,0.168 5.344,0.168 l 7.4,0 11.51,0 11.922,0 10.689,0 c 3.278,0 8.366,0.076 11.305,0.168 2.939,0.092 7.656,0.243 10.483,0.335 2.826,0.092 6.248,0.62 7.605,1.173 1.356,0.553 3.299,1.232 4.316,1.509 1.018,0.276 1.573,0.955 1.234,1.508 -0.339,0.554 0.031,1.006 0.822,1.006 0.792,0 1.902,0.755 2.467,1.677 0.565,0.922 2.415,1.677 4.11,1.677 1.696,0 3.824,0.829 4.728,1.843 0.905,1.014 2.477,1.995 3.494,2.179 1.018,0.185 2.96,0.26 4.317,0.168 1.356,-0.092 3.761,-0.243 5.344,-0.335 1.583,-0.092 4.08,-0.092 5.55,0 1.469,0.092 3.689,0.017 4.932,-0.168 1.244,-0.184 4.667,-0.486 7.606,-0.67 2.94,-0.185 7.472,-0.487 10.072,-0.671 2.599,-0.184 6.947,-0.712 9.661,-1.173 2.714,-0.461 6.876,-0.914 9.25,-1.006 2.374,-0.092 5.796,-0.394 7.605,-0.67 1.808,-0.277 4.768,-1.031 6.577,-1.677 1.809,-0.646 5.232,-1.174 7.606,-1.174 2.374,0 8.777,0.462 14.229,1.027 l 6.073,0.629 c 5.452,0.565 12.318,4.044 15.257,7.732 2.94,3.688 8.494,9.898 12.343,13.801 l 1.215,1.232 c 3.849,3.903 2.518,7.293 -2.958,7.533 l -33.45,1.471 c -5.476,0.241 -14.43,0.124 -19.898,-0.261 L 9.735,15.454 C 4.267,15.07 -0.16,11.435 -0.103,7.378 -0.046,3.32 0,0 0,0" /></g><g
           transform="translate(-1.3418,27.2952)"
           id="g3486"><path
             id="path3488"
             style="fill:#c8c0ab;fill-opacity:1;fill-rule:nonzero;stroke:none"
             d="m 0,0 79.459,2.683 29.83,31.346 114.002,63.201 -59.044,0 -57.675,2.682 L 0,99.241 0,0 Z" /></g><g
           transform="translate(-1.3423,50.8485)"
           id="g3490"><path
             id="path3492"
             style="fill:#8e856d;fill-opacity:1;fill-rule:nonzero;stroke:none"
             d="m 0,0 71.047,5.616 80.66,30.845 -20.897,1.677 -15.462,0 -45.555,4.023 -9.612,2.012 20.06,3.352 15.882,1.342 12.12,0.335 12.538,2.346 3.76,0 -7.523,1.677 13.375,0 14.627,-2.347 13.373,-0.671 6.687,-0.334 7.105,-0.336 10.448,2.347 -12.538,2.347 -7.522,0 -13.374,0 -12.538,0.335 -2.924,1.341 12.954,1.341 12.956,0 12.12,0 11.283,-1.006 9.196,-1.676 13.791,11.064 -25.911,0 -10.448,1.341 -7.941,1.676 -10.448,-1.341 -6.269,0 -6.687,-2.011 -16.3,-0.671 -10.865,-1.676 -15.463,-0.336 2.09,-1.006 4.597,0 7.104,0 10.031,0 7.523,0 15.462,0.671 12.538,0.671 -12.12,-2.347 -11.702,-1.006 -11.283,-0.335 -10.867,-1.006 -12.12,0.335 -7.941,0 -13.373,1.006 2.508,-2.682 5.851,0 9.612,-0.336 12.955,0 -17.97,-1.34 -12.12,0 -7.106,0 L 55.166,52.219 47.643,50.878 38.866,46.855 31.762,44.843 14.21,42.161 0,41.49 0,0 Z" /></g><g
           transform="translate(-1.3423,118.8304)"
           id="g3494"><path
             id="path3496"
             style="fill:#0d3a1d;fill-opacity:1;fill-rule:nonzero;stroke:none"
             d="m 0,0 9.444,0.2 6.57,3.194 6.981,1.197 12.32,0.399 9.855,1.597 18.479,-0.799 11.119,-0.175 8.047,0 9.578,0.575 12.885,-0.24 10.729,-0.335 9.723,-0.335 4.853,-0.686 12.729,0 8.624,-1.598 10.676,-3.593 11.087,-1.198 16.016,-1.596 11.499,-2.397 10.472,5.589 2.669,6.388 29.153,6.388 4.929,3.993 -0.821,9.58 -0.82,0.997 0.41,1.398 -2.052,1.398 -1.028,0 -1.643,-1.797 0,-1.997 -1.437,0.399 -1.435,0.999 0,-2.196 1.024,-1.797 -0.408,-1.995 -1.232,2.395 -0.822,2.594 0,3.993 -1.232,1.397 0,-4.591 0,-3.194 0,-1.796 -0.206,-3.393 -1.849,1.596 -1.026,1.597 -1.231,-2.196 -1.233,-0.198 -1.848,0.399 -1.435,0.998 -0.617,-1.797 -0.204,-3.593 -1.029,1.797 -1.436,1.397 1.233,1.198 0,1.796 -1.645,2.195 -0.615,-2.195 -2.053,-1.197 -1.437,0 0,1.596 2.513,1.597 -2.771,-0.748 0.307,1.347 1.848,0.3 -0.615,1.796 1.693,1.198 -1.078,0.599 -1.232,0.449 1.541,1.197 -1.232,0.3 -1.077,-1.348 0,1.197 1.231,1.199 -1.695,-0.151 -0.462,1.048 -0.768,-1.197 0,-1.048 -0.155,-1.048 -0.77,0 0,2.545 -1.385,0.149 0,-2.694 -2.003,-1.497 0.155,-0.898 0.923,0.749 1.078,-0.899 -2.001,-1.347 0.152,-1.198 0.616,-0.898 -0.768,-1.048 -0.155,-1.946 -1.077,0.898 -0.925,0.749 -1.386,-1.198 0.154,-1.048 0,-2.395 1.696,-0.599 -2.003,-0.299 -0.924,-1.198 0.77,-1.347 -0.463,-1.198 -1.231,-1.647 2.155,-0.748 -0.769,-0.898 -1.848,-0.749 -0.155,1.647 -1.232,1.048 0.771,1.197 -1.077,0.75 -1.233,0.748 1.387,1.796 -2.002,0 0,1.198 1.076,0.598 -1.847,1.198 0,4.042 0.616,0.599 0,1.347 -1.232,0.3 2.002,0.748 -1.386,0.898 -0.153,1.497 1.693,0 -1.693,1.348 0.153,1.048 1.077,0.748 -1.385,0.3 0,1.047 0.924,0.15 -0.154,1.048 -1.078,0.149 -0.307,2.696 -0.926,-1.947 0,-1.497 -0.614,-1.197 -0.771,-1.648 1.078,0 0.617,-1.047 -0.924,-1.198 0,-2.095 1.078,-0.899 -0.154,-1.946 -0.924,-1.347 0.307,-1.647 0.461,-1.048 -0.461,-1.946 0.307,-1.796 1.387,-0.899 -1.539,-0.748 -2.004,1.347 -1.077,-0.15 -0.615,1.198 0,3.443 -0.309,0.899 1.386,0.449 0.463,1.497 -1.54,-0.3 -0.154,2.395 -0.463,2.845 -0.924,-1.049 -0.462,-1.496 0.154,-2.246 -1.231,-2.245 0.154,-1.797 -0.309,-1.347 -1.077,1.048 -1.54,0.15 0,2.245 -0.154,1.198 0.769,1.048 -0.923,0.449 0.308,1.197 -1.078,0.899 -1.232,-1.198 0,-1.198 0,-0.898 0,-1.497 -0.462,-0.599 -1.387,1.198 0.463,1.198 0.617,0.598 0,1.497 -1.08,0.3 -0.769,-1.797 0,-1.796 -0.924,0.749 0,3.293 -1.232,0 0,-1.347 0,-2.096 0,-1.048 -1.694,-0.449 -1.077,0.748 0,-1.497 -0.155,-1.646 -1.231,0.748 0,1.198 0.769,1.048 -1.385,0.299 -0.308,1.946 -0.155,2.545 -1.077,-0.748 0,-2.696 0,-0.897 -1.232,-0.898 0.462,-0.899 0.77,-1.497 0,-1.946 -1.078,0.749 -0.154,1.197 -0.462,1.497 -0.616,-1.497 -1.078,-0.449 0.307,2.246 0.771,0.748 -0.616,1.048 -0.925,0.3 0.463,1.047 0.77,1.198 -0.924,0.749 0,1.346 -0.616,1.348 -0.924,0.599 -0.617,-2.096 0,-1.497 -0.769,-1.647 0.461,-1.497 -0.923,-1.047 0.308,-3.444 -2.002,-1.497 0.308,-2.096 -1.386,-0.898 -1.077,1.797 0,1.347 1.077,0.299 0,1.048 -1.386,0.15 0.154,0.898 0.924,0 0,1.348 -1.385,0.149 1.385,0.749 -1.078,1.197 0,3.444 -1.232,0 0,-3.144 -1.077,-0.449 -1.079,-0.898 1.387,-0.599 0,-1.198 -1.387,-0.299 -0.153,-1.348 0,-1.646 -1.694,-0.45 0,-1.795 0,-1.348 -0.771,1.796 0,1.647 -0.461,1.497 -1.386,0.15 -0.616,-1.198 -0.924,-1.796 -0.308,1.347 -0.154,2.096 -0.924,-0.3 -0.154,-1.796 0,-1.347 -0.462,-1.198 -0.154,-2.095 -0.308,-1.648 -1.539,0.599 0.769,1.647 0,1.796 -0.308,1.797 1.54,1.197 -0.462,0.749 -1.539,-0.898 0,1.646 0.769,0.749 0,1.647 -1.232,0.299 0,1.198 1.079,0 -1.233,1.497 0.924,0.299 -0.307,0.898 -0.771,0.15 0.154,2.246 -1.848,-1.348 -0.616,-1.048 0.771,-1.347 -1.695,-0.599 0.155,-1.646 1.232,-0.75 -0.771,-1.795 -0.616,-1.647 -0.308,2.096 -0.923,1.497 0,1.497 -1.695,-1.048 -0.924,1.945 1.079,0.45 0,1.347 -0.771,0 0,1.497 0.771,0.3 -0.463,1.347 -1.385,-0.748 0,1.048 0.616,1.048 0,1.346 -1.233,0 0,1.198 0.617,1.347 0.923,1.198 -1.231,0.299 0.308,1.497 -0.462,1.348 -1.079,1.497 -0.461,-1.348 0,-0.748 0,-1.198 -1.078,-0.149 0.308,-1.198 -1.387,-1.646 0.617,-0.449 0,-1.797 -0.461,-1.197 -1.079,-0.899 0,-0.898 0,-2.096 -1.232,-1.347 0,-0.749 0.925,-2.095 -1.233,-0.599 -0.154,-0.899 -0.154,-2.395 -0.307,-1.796 -1.233,-1.048 -1.078,0.599 -0.307,1.197 -0.308,1.797 -0.616,0.299 -0.617,-0.449 -0.308,-1.647 0,-1.497 0,-1.796 -2.001,-1.048 -1.233,0.748 0.155,1.497 -1.386,0.599 0,1.647 -0.462,1.647 -1.232,-2.246 -0.616,-1.347 0,-1.348 -0.925,-0.598 0.155,1.646 0,1.947 0.153,2.245 -0.461,2.395 -0.924,2.545 -0.77,-0.598 0,-1.348 -0.77,-1.347 0,-1.497 -0.77,-1.946 0,-1.198 -0.154,-1.796 -1.231,-0.3 -0.924,-0.898 -0.771,1.347 0,1.946 -0.923,1.647 -0.616,-0.599 0,-1.347 0,-1.347 -1.387,-0.749 0,2.695 -0.461,1.197 -0.77,-0.149 -0.155,-1.048 -0.308,-1.497 -1.077,2.395 -1.849,0.449 0.155,1.946 0.77,1.048 0,1.946 1.232,0.899 -1.232,0.598 -0.617,-0.449 -0.615,1.048 0.462,1.348 0,1.796 -0.616,1.497 -0.616,-1.048 -0.462,-1.197 -0.77,-1.947 0.924,-1.497 -0.769,-0.449 -0.155,-2.245 -1.386,-0.899 0,-1.796 -0.924,0.599 -0.924,1.048 -0.153,-1.497 -0.771,-1.946 -0.308,-1.198 -0.77,-1.047 -1.232,1.197 -0.461,2.545 -0.924,1.347 -1.233,-1.797 0,-1.347 -1.232,-1.048 0.616,2.845 0.155,3.443 -1.233,1.197 0.925,1.048 -0.616,1.197 0.308,1.797 -1.078,2.995 -1.079,-1.947 -0.308,-1.347 -1.077,-1.198 0.616,-1.646 0.153,-1.497 -1.539,-0.599 -1.078,-2.695 0.462,-1.946 -1.386,1.198 -1.232,-1.497 -0.924,-1.797 -1.54,1.497 0.77,1.497 0,1.348 -1.078,1.497 -1.077,1.497 -0.925,1.048 -0.153,-2.995 -0.77,-1.497 0,-2.095 -2.002,-0.3 -0.462,-1.347 -0.616,-0.898 0,1.646 -0.462,1.946 -0.925,-1.347 -0.769,-0.898 0,-1.797 -0.924,-1.197 -1.386,0.898 0,2.844 -0.77,2.246 -1.386,0.749 0,-1.647 0,-1.497 -1.078,-1.946 -2.156,1.497 -0.308,2.245 -1.078,0.749 0.77,1.197 -1.078,0.599 -0.153,2.994 -1.54,-1.796 -0.155,-2.096 -0.307,-2.695 -2.311,0.749 -2.155,1.647 -1.694,1.795 -1.694,1.498 -5.698,-2.844 -2.156,-0.3 -2.001,-0.898 -1.849,0.449 0,2.695 -0.923,-0.15 -0.462,-2.245 -1.386,-1.348 -1.385,-1.946 -1.387,1.647 -1.078,1.347 -1.386,0.449 -0.154,-0.898 -1.077,-0.749 -1.541,-1.347 -1.077,0.599 -0.155,2.844 -1.231,-0.449 -0.308,2.545 -1.695,-1.048 -0.153,-2.694 -1.078,-0.599 -2.617,1.048 -1.079,1.796 -2.002,1.647 -2.464,2.096 -1.078,-2.545 2.156,-0.898 -0.462,-1.198 -1.694,-1.347 -2.001,-0.749 -1.078,1.946 0.461,3.144 1.079,1.497 -0.924,1.047 -1.232,2.097 -2.002,0.599 -1.232,1.048 -0.769,-2.246 -1.387,-1.946 0.154,-1.946 2.002,-0.15 -1.694,-2.395 -0.616,0.149 -1.077,4.192 -1.387,2.246 -0.924,0 0,-3.443 0.462,-3.593 -0.616,-2.994 -1.386,-0.3 -1.54,1.797 0,1.197 L 7.7,20.958 7.237,22.755 6.929,25.899 5.852,27.994 5.39,24.252 0,25.749 0,0 Z" /></g><g
           transform="translate(66.105,29.2034)"
           id="g3498"><path
             id="path3500"
             style="fill:#4f2c44;fill-opacity:1;fill-rule:nonzero;stroke:none"
             d="m 0,0 5.188,-0.357 8.893,4.997 7.412,4.995 15.564,7.137 7.039,5.709 L 32.239,17.486 24.828,13.203 16.305,8.564 5.559,2.499 0,0 Z" /></g><g
           transform="translate(80.5568,46.3318)"
           id="g3502"><path
             id="path3504"
             style="fill:#4f2c44;fill-opacity:1;fill-rule:nonzero;stroke:none"
             d="m 0,0 -5.188,-4.283 3.335,0 L 7.411,2.14 15.005,5.163 0,0 Z" /></g><g
           transform="translate(116.5015,54.895)"
           id="g3506"><path
             id="path3508"
             style="fill:#4f2c44;fill-opacity:1;fill-rule:nonzero;stroke:none"
             d="m 0,0 15.564,10.705 10.746,6.422 4.817,4.641 5.929,2.853 0.742,-1.783 -2.965,-2.855 0,-1.427 5.189,4.638 5.558,1.427 5.188,5.352 3.335,1.785 -2.224,2.498 -0.741,2.854 4.076,2.856 1.852,4.281 -10.375,-6.423 -5.188,-3.568 -5.559,-2.855 -7.781,-2.854 -5.559,-3.926 -8.893,-5.709 -3.336,-3.925 7.783,4.639 6.669,3.924 8.894,3.926 L 29.646,23.55 25.198,20.339 17.046,12.846 8.893,7.851 0,0 Z" /></g><g
           transform="translate(203.2132,119.1231)"
           id="g3510"><path
             id="path3512"
             style="fill:#4f2c44;fill-opacity:1;fill-rule:nonzero;stroke:none"
             d="m 0,0 -7.042,-3.926 -0.368,-3.211 4.074,2.855 2.966,0.356 5.928,3.212 L 6.299,2.853 0,0 Z" /></g><g
           transform="translate(224.3363,130.8982)"
           id="g3514"><path
             id="path3516"
             style="fill:#4f2c44;fill-opacity:1;fill-rule:nonzero;stroke:none"
             d="m 0,0 9.634,5.352 3.336,4.638 7.04,1.071 11.117,3.57 4.446,6.779 8.154,7.136 L 32.239,24.264 25.197,16.413 13.711,13.202 8.522,9.634 1.853,4.996 0,0 Z" /></g><g
           transform="translate(255.834,12.0761)"
           id="g3518"><path
             id="path3520"
             style="fill:#4f2c44;fill-opacity:1;fill-rule:nonzero;stroke:none"
             d="m 0,0 31.533,15.712 21.769,9.427 9.761,6.81 12.014,4.188 1.5,-2.618 -6.007,-4.189 0,-2.095 10.512,6.808 11.262,2.094 10.508,7.855 6.759,2.619 -4.507,3.666 -1.498,4.191 8.256,4.19 3.754,6.285 L 94.596,55.515 84.083,50.277 72.822,46.089 57.057,41.899 45.795,36.137 27.779,27.758 21.02,21.997 36.786,28.805 50.299,34.566 68.318,40.327 60.057,34.566 51.05,29.852 34.534,18.853 18.017,11.523 0,0 Z" /></g><g
           transform="translate(324.0165,54.5375)"
           id="g3522"><path
             id="path3524"
             style="fill:#4f2c44;fill-opacity:1;fill-rule:nonzero;stroke:none"
             d="m 0,0 9.634,5.352 3.336,4.639 7.04,1.07 11.117,3.57 4.448,6.779 8.152,7.137 L 32.239,24.264 25.198,16.414 13.711,13.202 8.524,9.635 1.853,4.996 0,0 Z" /></g><g
           transform="translate(298.0754,3.8605)"
           id="g3526"><path
             id="path3528"
             style="fill:#4f2c44;fill-opacity:1;fill-rule:nonzero;stroke:none"
             d="m 0,0 9.634,5.352 3.334,4.638 7.042,1.071 11.117,3.569 4.446,6.779 8.154,7.137 L 32.239,24.264 25.197,16.413 13.709,13.202 8.522,9.634 1.851,4.996 0,0 Z" /></g><g
           transform="translate(-1.0643,297.3579)"
           id="g3530"><path
             id="path3532"
             style="fill:#4d5457;fill-opacity:1;fill-rule:nonzero;stroke:none"
             d="m 0,0 -0.278,-37.97 9.264,-15.59 1.853,2.012 -0.741,9.052 -2.224,6.371 -1.111,4.023 4.817,-2.347 4.818,-6.706 6.67,-5.028 -8.894,11.063 -2.223,5.365 -2.595,3.352 1.854,2.012 2.223,-3.018 2.594,-3.017 6.67,-0.335 5.559,-3.017 -5.559,7.04 -4.447,6.035 -4.447,6.035 0,3.018 L 8.244,-8.298 6.022,-4.275 0,0 Z" /></g><g
           transform="translate(-1.0643,301.1298)"
           id="g3534"><path
             id="path3536"
             style="fill:#4d5457;fill-opacity:1;fill-rule:nonzero;stroke:none"
             d="m 0,0 9.727,-6.37 1.853,0.671 -3.336,3.352 4.448,-1.341 1.111,-3.017 1.853,-1.006 5.929,-4.359 5.559,-5.364 2.223,-3.017 3.335,2.682 -6.67,4.693 -5.929,4.359 -2.594,4.694 -3.706,3.017 L 8.615,1.006 11.951,1.341 5.281,5.365 0,8.549 0,0 Z" /></g><g
           transform="translate(2.3632,315.5467)"
           id="g3538"><path
             id="path3540"
             style="fill:#4d5457;fill-opacity:1;fill-rule:nonzero;stroke:none"
             d="m 0,0 2.965,1.006 2.223,0.335 3.706,0 2.223,0 3.705,-0.335 0.742,4.693 2.594,4.024 5.558,-0.335 0.742,-2.347 1.111,-3.688 -3.335,-1.341 -6.3,-3.688 2.595,-2.683 5.929,-3.352 1.481,-1.677 4.448,-6.035 6.669,0 5.93,-1.006 5.558,-2.682 2.965,6.371 0.74,2.682 2.595,-3.353 4.817,2.347 0,-4.023 1.112,-3.353 2.964,0 3.336,-5.364 -2.594,-3.689 0,-3.352 -2.223,-5.029 -4.819,-2.347 -8.893,4.023 -8.893,5.7 -8.153,-0.671 -5.559,1.006 -2.223,11.734 -1.112,3.689 -6.299,4.358 -5.188,5.7 L 8.523,-6.035 4.447,-7.041 1.853,-4.359 0,0 Z" /></g><g
           transform="translate(39.4194,329.6281)"
           id="g3542"><path
             id="path3544"
             style="fill:#4d5457;fill-opacity:1;fill-rule:nonzero;stroke:none"
             d="m 0,0 1.854,-3.017 5.187,-1.342 3.335,1.006 4.817,0 1.853,2.347 8.153,-0.67 0,2.682 4.447,0.67 3.335,-1.341 4.076,-1.005 -1.852,2.011 -0.742,2.682 2.594,-1.341 2.594,-1.341 0.371,3.018 -4.447,1.006 -4.077,0 -5.188,0 L 24.088,3.688 18.16,2.431 13.341,1.006 9.265,1.006 5.653,1.425 4.077,0 0,0 Z" /></g><g
           transform="translate(69.0655,322.5874)"
           id="g3546"><path
             id="path3548"
             style="fill:#4d5457;fill-opacity:1;fill-rule:nonzero;stroke:none"
             d="m 0,0 -0.742,-3.688 -2.965,-1.677 0.742,-2.011 3.706,2.682 4.818,3.688 0,2.347 L 2.593,-0.335 0,0 Z" /></g><g
           transform="translate(82.7756,330.2985)"
           id="g3550"><path
             id="path3552"
             style="fill:#4d5457;fill-opacity:1;fill-rule:nonzero;stroke:none"
             d="m 0,0 2.595,-2.682 -0.371,-1.341 -1.482,-2.682 1.482,-3.353 4.446,-0.671 2.965,-2.682 1.112,-9.052 5.187,-2.347 4.447,-4.694 2.224,-6.035 0,-5.364 5.929,-0.336 3.335,-6.369 4.076,-1.342 -3.706,4.359 -1.853,6.035 -5.558,1.006 0,5.029 -1.852,2.011 0.37,3.018 -2.965,0 -2.223,2.347 0,3.017 -1.482,5.7 1.853,4.358 1.481,2.347 -5.187,-4.358 -1.852,-3.018 -1.112,4.023 -3.706,3.018 -1.112,2.347 2.594,0.67 2.224,1.677 3.334,2.682 -6.3,-2.012 -2.964,0.671 0,1.676 1.853,1.006 3.335,2.012 0.371,2.346 3.335,2.348 L 11.488,5.7 9.264,3.688 8.153,2.012 5.929,3.353 4.076,5.029 1.483,3.688 4.076,0.671 2.224,-0.335 0,0 Z" /></g><g
           transform="translate(122.6136,334.0703)"
           id="g3554"><path
             id="path3556"
             style="fill:#4d5457;fill-opacity:1;fill-rule:nonzero;stroke:none"
             d="m 0,0 0.183,-6.118 0,-4.359 0.741,-6.37 -0.741,-4.694 -1.111,-4.359 0,-4.023 1.203,3.897 0.418,1.761 1.25,3.017 0,3.143 0.418,4.024 -0.974,3.017 0.14,1.886 0,2.012 0,3.394 0.416,2.892 1.39,0.377 2.224,0.126 0.833,-0.629 -0.972,-2.892 -0.695,-1.76 -0.278,-2.514 0,-1.258 0,-1.76 0.278,-0.88 -0.139,-2.514 -0.556,-4.149 0,-3.144 0,-4.526 0,-1.006 c 0,-1.257 0.973,-5.154 0.973,-5.154 l 0,-3.772 0,-4.401 0.972,-2.388 0.139,1.383 -0.139,1.76 0,3.143 0.278,2.64 -0.694,2.766 -0.278,3.646 -0.417,3.772 0,3.52 0.417,1.886 0,3.144 0.694,3.017 0,2.64 0.139,3.143 0.556,2.515 1.529,2.892 2.779,0.503 3.613,1.131 L 11.532,0 8.892,0 6.946,0 4.167,0.251 0,0 Z" /></g><g
           transform="translate(74.5312,301.1298)"
           id="g3558"><path
             id="path3560"
             style="fill:#4d5457;fill-opacity:1;fill-rule:nonzero;stroke:none"
             d="m 0,0 0,-3.143 -0.139,-1.886 -1.529,-0.88 1.25,-0.629 0,-4.903 -0.694,-2.012 1.25,-2.137 -2.64,-0.252 -0.416,-2.137 -0.556,-0.629 -2.224,0 -1.945,0.378 0,-5.532 -1.251,-3.018 2.502,-1.634 4.03,-1.383 2.084,-0.126 2.64,0.503 1.111,0 0.834,-1.886 0.556,-1.886 -0.972,-1.76 -0.418,-3.646 2.64,-1.76 3.614,-0.881 3.196,-1.76 4.169,-0.503 2.779,0 -5.003,2.892 -1.667,1.132 -2.918,2.891 0.973,2.766 0.416,1.006 2.224,-1.634 0.972,-0.629 0.556,-1.383 1.112,-0.754 1.668,0 1.25,1.634 2.919,-0.377 2.222,-0.503 2.364,-0.503 -2.086,2.012 -2.362,1.383 0,1.509 2.502,0.251 3.057,-0.629 2.64,-0.628 1.668,-2.389 1.25,-1.383 -1.112,-1.509 -2.223,-1.006 -1.389,-2.137 1.25,-2.263 0.695,-0.377 2.919,-0.377 1.806,-0.126 -3.474,-2.012 1.668,-2.64 4.585,-2.64 1.529,-4.149 0.139,2.263 0.972,1.383 2.918,-0.377 3.474,-1.383 -2.362,2.514 -0.556,1.257 1.529,1.509 -1.807,2.766 1.39,1.383 2.502,-2.263 0.138,-2.263 0.417,-1.76 1.39,-2.766 0.139,-2.641 0.139,-1.508 1.806,-3.395 1.39,3.898 1.25,0 0.14,2.011 0,3.143 0,2.641 1.806,-0.755 0,-3.394 0,-1.006 0,-0.88 2.362,1.257 1.39,-1.383 0,-1.634 1.251,-0.88 1.528,0.125 1.806,1.132 2.085,-0.377 0.278,-1.509 1.112,-0.88 1.528,-1.76 1.807,-0.126 1.251,1.131 1.668,0.378 0.833,-1.635 1.389,-1.257 0.973,0.88 1.251,1.006 1.945,1.76 -0.278,-2.389 0.974,-2.389 1.388,-3.394 0.418,-1.886 3.057,-3.018 2.362,-1.634 -1.945,3.143 0.834,1.257 0.277,1.761 0.278,2.263 -1.945,1.383 -1.946,3.017 -1.112,1.886 0,1.132 2.085,-1.635 3.057,-3.269 2.919,-3.269 2.362,-1.006 1.668,-1.76 1.945,-2.263 0.834,0.629 -1.529,2.137 -2.64,2.64 -2.78,2.138 -3.473,2.64 -4.17,3.646 -0.694,1.76 -0.14,1.258 3.753,-1.886 -4.169,3.269 -2.501,0.125 -1.529,2.263 0,1.761 -1.807,0.88 -2.918,-0.126 -0.972,1.006 -0.834,1.006 -2.501,-0.126 -2.085,-0.126 -0.833,2.138 -4.308,1.634 -4.169,0.754 0.278,1.006 -0.834,1.132 -1.668,1.006 -1.806,0.88 0.138,1.886 -0.138,1.131 -1.668,0 -1.112,-0.126 -2.084,-1.257 -0.973,2.012 -0.556,1.634 -0.278,1.257 -0.278,1.635 -1.25,1.006 -2.224,0 -1.667,0 -3.196,-0.252 -0.973,1.006 -1.251,1.635 -1.528,1.005 -0.834,2.389 -1.112,1.132 -1.528,1.76 0.556,0.377 0.694,0.88 -0.972,1.383 -1.529,-1.006 -1.25,0.378 0,1.508 -1.39,-0.754 -2.64,0.251 -0.695,1.383 -0.417,1.383 -0.834,1.258 -1.25,-0.88 -0.695,2.137 0.278,2.263 1.111,1.257 2.084,0.755 0.974,0.125 -0.834,1.006 -2.084,-0.503 -2.502,-0.754 -0.695,-2.012 -1.112,0.503 -0.834,1.76 -1.806,-0.754 -1.39,-0.629 -2.362,0 -1.945,0.252 -1.946,-1.006 -0.556,1.886 0,1.383 -0.834,-0.503 -0.694,1.383 -1.112,0.126 0.418,1.76 -1.53,0 L 1.528,-3.269 0.694,-1.76 0,0 Z" /></g><g
           transform="translate(71.3349,255.9937)"
           id="g3562"><path
             id="path3564"
             style="fill:#4d5457;fill-opacity:1;fill-rule:nonzero;stroke:none"
             d="m 0,0 1.112,-4.149 -0.14,-2.137 -0.277,-1.761 -2.919,-1.257 -0.556,-1.634 0,-3.898 1.807,-0.251 2.918,-1.635 0.834,-2.766 0,-2.263 0,-2.64 -1.112,-1.635 -0.555,-0.125 -2.78,-0.126 -5.697,0.126 -1.807,0.503 -0.973,-1.258 -3.334,-4.652 -3.614,-0.125 -6.253,-1.006 c 0,0 -0.138,-1.006 0,-1.509 0.14,-0.503 -0.556,-5.658 -0.556,-5.658 l 1.528,-4.4 3.197,-5.783 c 0,0 7.782,-0.755 11.117,-0.755 3.335,0 17.231,-3.394 17.231,-3.394 l 12.229,-0.126 19.871,-0.377 6.115,-0.252 -2.779,5.406 -1.529,3.898 1.807,0.251 -0.696,1.509 -0.972,1.76 -0.973,2.263 -2.223,1.132 -0.417,1.76 -0.139,5.029 3.474,2.263 1.946,0 -0.834,3.018 -1.529,2.011 -0.834,2.012 1.39,0.754 1.389,1.258 0.556,2.389 1.251,1.257 3.196,-0.755 3.752,0.629 1.25,1.76 -1.11,1.258 -3.197,-1.006 -2.64,0 -0.417,2.891 -2.919,0 0.14,-1.383 1.25,-1.257 -1.946,-1.006 -2.084,-0.125 -0.972,1.508 0,1.006 0,0.629 -0.834,1.634 -0.695,-1.006 -0.695,1.761 0,1.257 -0.555,1.383 -0.556,-3.143 -2.224,0 -2.918,1.886 -1.945,1.508 -0.973,1.509 -2.919,2.766 -2.64,0.377 -1.667,-0.754 1.667,-1.886 2.78,-1.886 1.389,-1.257 0,-1.509 -2.641,1.257 -1.944,1.509 -2.085,1.635 -3.336,1.508 -1.11,-1.006 0,-1.005 1.11,0 1.112,-0.88 -0.834,-0.755 -0.416,-1.006 0,-0.503 0,-1.005 0,-1.761 0,-1.76 -1.39,1.886 -0.834,1.635 -0.416,2.766 -1.946,2.514 0,0.88 0.556,1.383 -1.251,0.126 -1.25,-0.126 -0.834,2.263 -0.695,-1.257 0,-1.886 0.695,-0.628 0.278,-0.755 0.973,-1.006 1.389,-1.005 0,-3.018 -0.833,-1.257 -2.78,3.772 -0.139,2.137 -0.834,1.257 -1.25,1.509 -0.834,0 L 3.891,-2.263 1.389,-1.257 0,0 Z" /></g><g
           transform="translate(151.7936,231.7283)"
           id="g3566"><path
             id="path3568"
             style="fill:#4d5457;fill-opacity:1;fill-rule:nonzero;stroke:none"
             d="m 0,0 3.752,-5.658 5.003,-5.657 3.752,-2.766 1.111,-2.515 5.28,-3.52 1.668,0 -2.362,2.263 -4.447,4.652 -1.25,1.508 0,1.006 1.528,-1.006 1.39,-0.377 1.945,0 0.695,-1.006 3.752,-1.76 1.39,-0.88 1.667,-0.503 -0.834,1.383 -4.03,2.138 -1.667,1.005 -1.807,1.132 -2.362,0.126 -2.223,0.88 -1.806,0.251 L 7.782,-7.041 5.836,-4.526 4.864,-3.269 2.78,-1.886 -0.556,0.503 0,0 Z" /></g><g
           transform="translate(169.7196,246.8156)"
           id="g3570"><path
             id="path3572"
             style="fill:#4d5457;fill-opacity:1;fill-rule:nonzero;stroke:none"
             d="m 0,0 1.112,-3.143 0.556,-1.886 1.668,-0.88 0,2.766 2.5,0 3.753,0.251 0.694,0.88 L 8.06,-0.88 6.253,0.503 4.586,1.76 2.502,1.634 0,0 Z" /></g><g
           transform="translate(186.6731,240.5292)"
           id="g3574"><path
             id="path3576"
             style="fill:#4d5457;fill-opacity:1;fill-rule:nonzero;stroke:none"
             d="m 0,0 -2.501,-0.754 -2.085,-1.132 -2.362,-0.754 0,-2.012 2.779,0.629 1.529,1.634 0.556,-0.754 -1.807,-1.886 0.695,-1.006 -1.529,-1.006 -1.667,-1.383 1.806,-0.628 2.641,2.011 1.806,0.503 1.946,2.389 1.945,0.251 1.389,0.378 2.084,0.251 1.252,0.126 1.112,1.76 1.112,0 1.528,0 1.528,0.754 1.389,1.006 1.668,0.629 -0.277,1.131 -2.084,-0.628 0,1.006 1.249,1.005 0.973,2.012 0.834,1.383 0.973,-0.251 -0.416,-1.006 0,-1.509 0.137,-1.132 1.668,0.252 1.251,1.509 1.112,2.137 1.668,-2.012 0,-1.131 1.668,0 2.361,0 1.668,0.126 0.972,0.377 1.668,1.886 3.613,0.125 1.807,0 0.833,-5.154 -0.139,-2.766 -1.112,-2.641 -0.556,-1.508 0,-3.898 1.807,-2.892 2.085,-1.886 7.781,-3.143 2.503,-5.029 3.056,-3.772 5.002,1.006 1.807,-4.023 4.308,-7.544 0,-5.28 -18.481,-1.886 -14.87,0 -15.425,2.011 -16.397,-0.251 -10.978,0 -3.613,3.646 1.529,6.035 2.5,-2.892 4.17,-2.137 5.003,0.88 0.416,2.263 1.807,1.132 2.223,-1.258 3.058,-0.503 1.389,1.761 0.139,1.885 1.945,1.132 2.224,1.886 -0.556,3.395 0.277,2.137 6.115,-0.88 0.834,2.892 0,1.257 -0.694,2.514 -1.807,3.772 -4.029,0.252 -2.503,-0.126 -4.725,-0.629 -5.001,1.258 -1.529,1.76 -3.197,0 -3.751,1.257 -1.112,1.509 -2.64,1.383 -2.224,2.011 1.806,1.132 -0.138,2.137 1.25,-0.503 2.084,0.126 2.919,1.006 L -4.586,0 -2.363,1.006 0,0 Z" /></g><g
           transform="translate(189.7299,248.0728)"
           id="g3578"><path
             id="path3580"
             style="fill:#4d5457;fill-opacity:1;fill-rule:nonzero;stroke:none"
             d="M 0,0 1.528,-0.629 2.084,0.88 3.057,2.515 5.281,6.789 9.449,6.286 9.866,4.526 11.812,3.52 l 2.641,1.886 3.056,-0.251 1.945,3.269 0.696,3.143 -3.196,1.383 -2.78,-2.012 -2.222,0.252 -1.391,-2.389 -1.945,0 -3.057,0 L 3.892,8.047 2.501,4.4 0.695,1.509 0,0 Z" /></g><g
           transform="translate(184.3103,281.0134)"
           id="g3582"><path
             id="path3584"
             style="fill:#4d5457;fill-opacity:1;fill-rule:nonzero;stroke:none"
             d="m 0,0 4.864,0.88 2.64,0 0.972,-0.126 0.14,-1.383 0.139,-1.005 1.112,0 0.833,1.508 2.084,0 1.808,0 0.833,0.629 1.112,2.012 1.807,1.005 3.473,0 2.64,-0.377 2.501,0 5.143,0.252 -0.974,-1.132 -4.862,-0.251 -3.892,-0.503 -2.224,-1.006 -1.805,-1.132 -2.78,-1.257 -1.807,0.629 -1.25,0 -1.39,-0.503 -1.112,-1.006 -2.085,0 L 6.81,-1.383 4.447,-1.006 2.084,-0.88 0,0 Z" /></g><g
           transform="translate(169.1636,283.6537)"
           id="g3586"><path
             id="path3588"
             style="fill:#4d5457;fill-opacity:1;fill-rule:nonzero;stroke:none"
             d="m 0,0 3.336,-3.772 0,-2.892 3.89,-2.388 5.142,-2.138 2.779,-0.628 4.308,0 0.695,-2.138 -2.084,0 -2.363,-0.628 -2.641,-1.132 -4.029,1.383 -1.529,2.012 -2.084,1.006 -3.058,1.257 -3.196,0.126 0,1.885 -2.362,2.264 -1.389,1.383 2.501,0.125 1.668,1.383 -2.641,0.629 -1.528,1.257 -0.278,1.635 -2.084,2.891 -2.641,0.629 0.278,-1.886 -0.695,-2.892 0,-2.137 -0.834,-1.634 -2.084,0 -2.501,-1.761 -0.556,0 -1.25,-0.628 3.89,-1.886 1.806,-0.377 4.587,-0.755 1.944,-0.88 4.031,-2.137 4.446,-1.257 4.725,-2.012 1.946,-0.88 1.945,-2.515 -3.057,-0.125 -3.613,0.502 -3.752,-0.251 -4.864,1.509 -1.945,1.131 -0.417,1.006 -4.447,2.012 -1.529,-0.755 -2.779,0.629 -1.945,0.629 -2.78,0.125 -1.111,-2.891 0,-2.892 0.695,-0.252 0.416,2.641 0.696,1.634 1.389,0 4.308,-0.377 4.446,-1.006 -1.528,-0.754 -2.918,-2.012 1.528,-3.772 -0.278,-0.88 -1.806,-1.383 1.945,-0.251 0.556,1.131 0.973,0.88 0.834,-0.628 0.278,-1.006 1.25,-1.76 3.058,-0.126 1.389,0.252 2.64,0 2.78,0.125 2.084,0 3.613,-0.125 -1.112,2.011 -1.667,0.88 -0.834,1.132 0,1.006 0.695,0.377 1.389,0 3.753,0 2.501,0.754 0.973,0.503 1.25,1.132 1.946,-0.503 2.778,-0.503 0,-1.635 1.391,-0.125 1.668,-0.629 2.777,0 0.835,0 1.529,0.754 1.389,0.126 0.278,2.389 -3.056,0 -0.835,1.76 1.668,0 0.416,0.88 -1.805,0.629 -0.835,0.628 -0.14,1.635 -0.833,1.006 -1.807,0.628 -1.389,0.126 -1.806,1.257 -1.807,0.755 -1.945,1.257 -2.223,1.257 -2.084,1.006 -2.919,1.886 -3.613,0.88 -1.667,1.509 0,1.76 0.138,2.012 -1.112,0 0,-1.006 L 1.946,-0.251 0,0 Z" /></g><g
           transform="translate(219.0518,286.2939)"
           id="g3590"><path
             id="path3592"
             style="fill:#4d5457;fill-opacity:1;fill-rule:nonzero;stroke:none"
             d="m 0,0 1.528,0.126 1.945,2.263 2.641,0.754 0.832,1.257 1.947,0.755 4.029,0 2.92,1.509 3.473,2.766 2.919,0 1.666,0.754 1.807,2.012 3.474,0 3.058,0 3.057,4.4 3.613,2.137 3.473,4.652 0.974,2.515 1.945,0 4.725,2.011 1.945,2.264 3.612,0.754 0.14,-1.76 -1.252,-2.138 -0.416,-2.388 -1.389,-1.761 -2.501,-1.634 -0.695,-1.257 -2.363,-0.629 -0.694,-1.509 0.138,-1.508 -1.945,-2.389 -1.806,-1.383 -0.139,-2.012 -1.112,-1.006 -0.972,2.389 -0.417,-2.389 0,-1.257 -0.139,-1.383 -0.696,-0.754 -2.224,0 -1.944,-2.263 -1.668,-0.126 -1.945,-0.126 0,-2.64 0,-1.257 -0.835,-2.892 -1.666,-2.892 -4.864,-4.149 -6.671,-1.76 -6.947,1.509 -1.807,1.634 -2.085,1.006 -1.944,-0.252 -4.031,-0.628 0,6.412 -1.25,1.383 L 0,0 Z" /></g><g
           transform="translate(279.4893,298.381)"
           id="g3594"><path
             id="path3596"
             style="fill:#4d5457;fill-opacity:1;fill-rule:nonzero;stroke:none"
             d="M 0,0 1.509,0.126 2.389,1.383 4.526,0 l 1.383,-0.629 1.257,-0.754 2.138,0 1.886,1.634 0,2.012 1.131,1.383 0,1.257 0.252,1.761 0,1.508 1.131,1.006 1.886,0.377 2.766,1.509 -1.383,-1.509 -0.628,-0.503 -0.881,-0.628 -1.76,-1.509 -0.377,-3.143 0,-2.138 2.263,2.515 2.892,-0.503 0.754,-1.509 2.641,2.892 2.137,0.377 -1.76,-2.137 -1.509,-1.635 -3.52,-2.766 0,-2.011 -0.755,-1.006 -0.125,3.269 -1.132,0.754 -0.503,-1.508 -0.503,-0.881 -1.006,-1.131 -0.251,-1.132 -0.377,-0.88 0,-0.754 0,-1.886 -0.126,-1.383 -0.754,-1.886 -2.641,-1.634 0,-2.892 0,-2.137 1.761,0.502 -0.252,-1.257 -2.263,-2.011 -2.137,-2.264 0.125,3.772 0,3.521 -0.628,1.76 0,-3.143 -0.629,-2.389 -1.886,-1.006 0,-2.64 0,-3.898 2.389,1.886 2.515,1.257 1.76,2.138 3.52,0.88 -2.514,-2.012 -2.389,-2.263 -1.635,-2.389 -1.508,-1.886 -0.755,-3.143 -1.509,-0.88 -0.754,-1.006 0.629,-2.64 4.4,-0.377 2.892,0 3.646,0.754 2.766,2.012 4.023,3.017 2.138,0.503 3.771,0 4.778,0 0.377,4.652 2.263,1.886 0.503,1.634 0.503,1.886 2.138,2.389 1.885,0.629 2.892,5.532 1.257,2.766 -0.88,4.652 -0.628,3.143 1.886,4.652 2.011,3.143 4.275,0 2.263,0 4.275,0 3.017,-1.132 2.263,-9.429 3.269,-5.155 2.012,-9.052 -0.126,-7.67 -6.538,-7.166 -5.154,-18.733 -9.43,-9.555 -22.002,-9.304 -17.476,4.652 -19.237,5.532 -8.675,1.509 -4.023,5.154 3.395,5.029 5.154,0.126 0,3.395 -2.137,2.64 -0.754,2.011 -0.88,2.515 1.508,1.76 0.377,-1.634 0.252,-2.892 2.263,-1.634 2.64,-0.503 2.263,2.891 0.629,2.515 -0.88,2.64 -2.137,1.509 -1.132,1.383 -0.88,3.646 0.251,2.389 0.378,1.634 0.502,2.137 0,1.635 2.138,1.509 2.766,0 2.263,2.388 3.143,-0.88 0.252,1.761 0,2.388 -0.126,2.263 1.006,-2.514 1.886,0.629 2.388,3.017 1.006,2.892 1.886,1.76 L 3.017,-3.395 0.88,-1.383 0,0 Z" /></g><g
           transform="translate(-1.3423,150.7745)"
           id="g3598"><path
             id="path3600"
             style="fill:#242a33;fill-opacity:1;fill-rule:nonzero;stroke:none"
             d="m 0,0 0,109.018 4.447,-0.289 0.556,-2.313 1.389,-2.025 1.112,-1.156 -0.834,-1.446 1.112,-2.314 0.555,-3.18 -2.223,-0.29 1.112,-2.313 2.223,0 2.224,0.868 -0.834,1.445 1.02,1.06 -0.742,1.35 0.556,0.771 -0.185,2.121 0.927,-0.194 0,-1.735 0.37,-0.77 0.186,-1.35 -0.186,-1.157 0.186,-1.349 0.555,-1.349 1.482,-0.578 0,1.927 -0.741,2.313 0.926,1.735 0.371,-1.542 0.741,-1.735 0.371,-2.892 0.926,-1.928 0,3.47 0,1.735 0.741,2.314 1.482,0.964 0.371,2.121 1.112,-0.194 0,-2.698 1.297,-0.772 -2.039,-1.348 0.556,-0.965 0.927,0.578 -0.185,-2.12 0.185,-1.542 1.112,0.192 0.371,1.735 0.185,2.122 0,2.891 0.37,2.314 1.111,-1.735 0,-0.772 0.371,-1.735 0,-1.928 0.556,-1.542 0.926,-1.735 -1.297,-1.35 0.186,-2.12 1.482,0.385 0.741,1.735 0.186,-3.855 0,-1.735 0.741,-3.085 0,3.47 0.74,2.313 0.556,1.157 0,-1.927 0,-1.735 0,-2.507 0.371,-3.084 0.556,-0.964 0.371,2.699 0.37,2.891 0.742,1.157 0.37,-1.735 0,-1.349 0,-3.085 0.371,-4.433 1.296,-1.543 0,3.856 0.556,2.506 0.556,1.735 1.112,-1.735 0,-2.892 0,-3.662 0.556,-2.892 1.112,-0.193 0,2.892 0.926,2.891 0.555,-2.12 0.185,-2.506 1.112,-3.085 0.556,-0.192 2.78,-1.35 1.111,-3.085 0,2.506 0.927,4.242 0.741,-4.435 0,-1.348 0,-1.35 0.927,-1.542 0.741,-3.857 -0.186,-3.083 0.371,5.397 0.556,3.663 0.555,-3.855 1.112,-1.543 0,-2.314 1.112,-2.698 0,-1.735 0.185,-1.542 2.409,0.963 -1.297,1.35 0.927,1.927 0,1.929 1.296,2.698 0.741,-1.157 0,-2.698 1.112,-1.735 1.483,1.928 -0.742,1.927 1.483,0 -2.224,1.928 1.297,-0.193 0,1.157 -1.667,0.386 2.038,0.385 -1.112,1.542 1.482,0 0,2.122 -0.741,1.348 0.556,0.965 0,1.349 -0.556,0.964 0.741,2.314 0.556,-1.157 0,-1.928 0.741,-1.542 0,-1.157 -0.371,-1.156 1.483,0.192 0.555,-1.349 0.927,-2.122 0.927,1.929 1.296,1.542 -1.111,1.156 0.741,0.579 0,1.156 -0.556,1.543 0.371,1.157 -0.741,1.542 1.481,0.193 0.186,1.927 0.556,-4.048 0.37,-1.157 0.556,-1.349 -0.37,-1.735 0.556,-1.35 0,-1.928 1.297,-2.313 -0.371,-1.927 0.556,-1.157 0.927,-1.35 0,-3.855 0.925,-1.543 0.927,0 0.463,1.688 -0.973,1.445 0.278,1.013 0.556,0.867 -0.139,1.301 -0.973,0.723 0.695,0.723 0,1.735 0.278,2.169 0.695,-2.603 0.555,-0.867 -0.416,-1.157 0.416,-1.012 0.278,-1.735 0.278,-2.458 0.278,-3.036 0.834,-0.145 -0.138,1.88 -0.14,1.879 0,2.603 0.278,4.482 0.14,1.735 0.555,-4.771 0.833,-1.157 0.556,-3.325 1.112,-1.302 0,-2.747 1.112,3.037 0.278,-3.615 0.834,-2.747 1.25,1.879 -0.555,1.302 0.694,0.723 -0.972,1.012 1.111,0.867 -0.695,1.591 -0.416,1.012 0.972,0.434 0.139,2.313 0.139,2.747 0,2.024 0.278,1.446 0.556,-4.482 0,-2.024 0.139,-1.012 0.278,-1.012 0.833,-1.013 0,-1.59 0.556,-1.88 0.974,1.157 0,1.735 1.111,1.88 0,0.723 -0.973,0.867 0.695,1.301 0.695,1.157 -0.417,1.012 0.555,0.723 0.14,1.446 -0.695,1.012 0.834,1.446 0.555,1.446 0.556,-1.735 0,-2.314 0,-0.867 0.556,-0.868 0.556,0 0.695,-0.722 -0.139,-2.748 0.278,-1.59 0.695,3.036 0.834,-2.313 0.833,-0.289 0,2.313 0,1.591 0,1.879 0.139,2.169 0.417,2.458 0.556,-3.615 0.139,-1.301 1.25,-0.578 -0.138,2.313 0.278,1.88 1.112,-3.904 0,-3.037 1.528,-1.879 0.556,1.735 0.556,2.313 0.555,-3.036 0,-2.747 -0.139,-3.037 1.529,1.157 0.139,3.037 0.973,-1.157 0,-1.88 0.556,-1.012 0.972,1.301 1.112,1.012 -0.695,2.025 0,1.879 0,2.314 1.667,1.735 0.418,-3.326 0.834,-2.169 0.277,-1.301 0,-1.157 0.973,-2.168 0,-1.735 0.139,-0.868 1.112,0.578 0,2.314 1.111,1.301 0.278,3.326 0.695,-2.748 1.25,-0.578 0.696,-0.723 0.416,-2.892 0,-1.879 0.418,-0.723 1.25,1.735 -0.834,2.169 0.14,1.735 0.694,2.602 0.695,-1.59 0,-2.169 0.833,-1.735 0,-2.603 1.39,0.579 -0.139,1.879 0.139,3.181 1.112,-1.301 0,-1.59 0,-2.025 1.111,1.735 0.14,1.735 0,3.181 0.416,2.169 1.112,-2.024 -0.139,-1.735 -0.139,-1.012 1.39,-0.289 0.834,-2.025 0.416,-2.458 1.39,0 0,2.025 0.556,1.446 -0.417,2.024 1.251,1.446 0.139,-1.735 0.277,-1.735 1.112,0 0,-1.446 0.695,-1.012 0,-1.88 0.695,-1.735 1.389,0.723 0,3.036 0.14,1.88 0.834,1.59 0.416,1.012 0,2.892 1.112,1.157 0.556,1.446 0.278,-1.157 0.278,-2.603 0.972,-1.445 0,-2.025 0,-3.036 1.529,0.145 0.278,1.879 0.972,1.591 0,1.735 0.695,0.433 0.139,-1.301 0.556,-1.735 0.695,-0.144 0.417,-1.302 -0.695,-0.723 0.278,-1.879 1.251,-1.012 -0.14,1.445 0.556,0.723 1.252,-1.012 0,-1.301 0.138,-2.169 0.417,-1.156 0.139,2.458 0.834,1.012 0.556,1.445 0.833,-3.036 1.251,0.434 0,1.301 1.945,1.301 0.695,-1.301 0.279,-1.446 0.694,-1.156 1.112,1.446 0,1.301 1.112,-0.579 0.833,1.88 0.556,-1.301 0.139,-1.591 1.528,0.723 0.14,1.591 1.25,-0.579 0.556,2.025 1.111,0.433 0,-1.59 1.112,-0.723 1.252,0.867 0.832,-2.313 0.418,-0.867 0.834,2.024 0.833,-1.88 0.556,0.579 0.139,2.024 0.973,1.735 0.834,0 0.555,-0.868 -0.139,-1.156 0.139,-1.735 1.39,1.012 0.973,0.144 0.416,3.326 1.53,2.891 0.278,-3.036 0,-3.036 0.416,-1.301 0.278,1.156 0.556,1.012 0.972,-2.313 0.834,1.157 0.417,1.156 1.112,0.434 0.139,2.024 0.973,2.024 0.556,-2.602 0.416,-1.446 0.14,-2.892 2.5,-0.723 0.556,-0.867 0.696,2.892 0.972,1.156 1.112,1.88 0,-4.048 0,-1.736 0.694,1.88 0.695,0.723 0.834,-1.88 1.529,1.446 0.556,1.446 0.833,-1.157 0.696,1.013 0.277,2.313 0.555,1.157 0,1.879 0.417,0.868 0.556,1.156 0,1.446 0.972,1.012 0.556,-0.867 0,-1.301 0,-1.302 0,-2.024 0.419,-2.313 0,-1.012 1.528,0 0.417,1.446 0.277,0.867 0.834,0.868 0.556,-1.591 0,-1.88 0,-1.156 0.14,-1.157 0,-2.602 1.389,0.867 0,2.169 0.695,0.867 0.973,0.29 0.693,-1.591 0.279,2.024 0.696,0.434 0.693,1.012 0.279,1.735 0.693,-0.578 0,-1.591 0,-1.156 0,-1.446 1.808,0.289 -0.556,2.313 1.251,2.892 1.25,-0.578 0,-1.88 0.418,-0.867 0.554,0.289 0,2.602 1.112,-0.144 0,-1.735 1.112,-0.723 0.835,0.144 0.556,2.314 1.805,-0.868 0.556,-0.578 0.139,-1.591 0.973,0.29 0.833,1.301 0.139,1.735 0.973,1.301 0,-2.747 0,-2.747 0.974,-0.145 0.972,0.579 0,1.879 0,2.314 0,1.446 0.138,1.735 0.835,1.59 0,-1.735 0,-2.603 0.277,-1.59 0,-2.313 0.695,-1.157 0.277,-1.301 0.419,-2.169 0.693,0.289 0.279,2.603 0.556,2.313 1.668,0.578 0.138,2.025 0.418,1.301 0.693,0.867 0.417,-1.301 0.418,1.446 1.389,-1.446 0.556,-1.012 -1.251,-1.301 0.974,-0.579 1.389,1.157 0,-0.723 0,-1.88 0.14,-0.722 0,-0.723 0.972,0 0.139,1.879 0.417,1.157 0.416,-2.458 0.417,2.169 0.416,-0.723 0.14,-1.735 0.835,-1.012 -0.14,3.904 0.833,-1.446 0.279,-1.88 0.556,1.012 0.833,3.759 0.833,-1.012 0.556,-1.59 1.53,-2.458 0.973,2.458 1.389,1.446 0.972,0.723 0.139,2.168 0.973,2.458 0.972,-1.156 0,-1.157 0.14,-1.735 1.528,0 0,1.735 0.14,1.735 1.805,1.446 1.251,0.434 -0.277,-1.88 0,-1.446 1.11,-1.012 0.14,2.747 0.835,1.88 0.972,-2.169 0,-0.867 0.14,-2.314 1.11,0 0.556,-2.892 0.974,3.181 0.554,1.591 0.835,-1.157 0,-1.59 0.139,-1.446 0.556,0.578 0.694,-1.446 0.279,-1.59 0.277,-1.591 1.112,-1.446 0.279,1.302 0,1.735 0.416,2.169 0.277,1.301 0.972,0.867 0,2.169 0.975,1.157 0,2.602 1.249,0.145 0.696,-3.47 0.277,-2.892 0,-1.446 -0.138,-2.168 1.666,-0.145 0.279,1.735 0.556,1.446 0.139,2.747 1.666,-1.301 -0.277,-2.603 1.389,-0.434 -0.556,-1.301 0.419,-3.325 1.112,0.433 0.277,1.88 0.972,1.012 0.556,-1.157 0,-2.458 0.139,-1.156 1.25,-0.145 0,1.301 0.279,1.88 0.972,-0.723 0.556,-1.301 0.833,-0.578 0.556,1.156 0,2.024 1.251,0.723 0,-2.024 1.112,-1.446 1.252,-1.156 0,2.168 0.693,1.157 0.835,-1.735 1.249,0 1.112,-1.157 2.364,-0.723 1.945,1.157 0.695,2.169 0.556,2.313 1.249,0 0,-1.012 0,-1.879 0.973,-0.29 1.668,-0.144 1.112,0.578 0.139,1.446 0.496,0.689 0.337,0.468 1.807,-2.169 0.973,1.157 0.139,1.735 0.973,-0.868 0,2.603 0.695,0 0,-1.88 0.137,-1.157 0.696,-1.445 1.389,1.012 2.363,0.433 69.802,-2.838 -0.37,-16.194 -48.17,5.586 -45.024,-2.565 -22.234,-0.469 -21.123,-3.688 c 0,0 -13.259,-1.79 -17.786,-2.532 -3.207,-0.525 -9.727,-0.685 -12.971,-0.578 -10.512,0.347 -32.036,3.553 -42.059,0.578 -4.31,-1.278 -9.634,-6.04 -16.49,-7.325 -8.069,-1.514 -23.602,1.68 -32.795,0.384 C 102.778,12.942 68.757,10.62 51.694,8.963 43.502,8.168 26.928,7.942 18.898,6.071 14.751,5.105 0,0 0,0" /></g><g
           transform="translate(-1.3418,-8.1223)"
           id="g3602"><path
             id="path3604"
             style="fill:#5b3e53;fill-opacity:1;fill-rule:nonzero;stroke:none"
             d="m 0,0 0,32.114 20.011,11.419 10.375,3.568 9.636,3.569 4.447,4.995 11.117,3.569 15.563,6.423 10.376,3.568 13.34,9.99 14.822,6.423 9.635,8.564 14.082,9.278 20.01,6.422 8.153,2.142 11.116,8.564 11.859,8.563 5.188,7.137 8.152,2.854 13.34,9.278 16.307,7.85 11.115,5.71 4.447,4.994 5.189,9.993 10.376,7.849 9.634,4.282 11.859,0 14.08,3.568 14.081,4.996 14.083,7.137 11.115,2.854 30.388,9.277 16.303,0.09 L 379.53,-1.003 0,0 Z" /></g><g
           transform="translate(28.1172,-8.1223)"
           id="g3606"><path
             id="path3608"
             style="fill:#4f2c44;fill-opacity:1;fill-rule:nonzero;stroke:none"
             d="m 0,0 138.406,0 12.602,25.697 7.041,8.207 7.782,4.282 4.075,3.568 12.229,3.568 12.229,8.564 -21.123,-4.996 -8.151,-4.995 11.859,12.131 8.151,6.781 2.966,5.352 7.41,2.498 2.595,1.07 -4.819,0 7.781,3.211 5.931,3.212 -2.224,-3.568 -1.112,-5.352 8.893,6.065 10.006,0.714 5.559,2.141 2.963,-1.427 0,-3.211 1.483,-3.212 5.188,3.924 -0.741,3.57 4.075,1.427 4.819,-0.357 7.41,3.211 4.819,8.565 -9.635,-7.137 -6.672,-0.714 -5.187,-1.428 -2.594,0.357 1.112,2.855 4.077,0 4.446,2.855 8.893,7.493 -7.781,-4.995 -5.558,-2.498 -5.559,-0.358 -1.854,-1.783 -2.222,-2.855 -5.559,-0.357 3.336,6.066 4.075,2.141 3.336,2.498 13.711,6.065 17.415,6.423 3.707,4.283 0,-3.212 5.186,2.499 4.077,2.498 -4.817,1.069 21.122,9.278 -2.222,-3.569 1.48,-1.07 2.224,0.358 -3.334,-3.926 4.076,0.714 2.594,2.141 2.594,2.14 4.445,-0.357 -2.594,3.569 3.336,1.428 4.448,3.57 4.075,-0.714 1.482,2.141 3.706,-1.07 1.854,-1.785 2.592,3.212 0,2.499 3.335,2.497 -1.852,1.427 1.852,0.357 2.224,3.211 4.817,0 2.224,4.639 2.594,4.639 -6.669,0 -3.706,0.714 2.224,1.783 -5.931,-1.069 9.635,3.924 -5.188,3.925 5.929,2.141 2.224,3.211 2.964,-0.713 7.874,3.471 0,19.269 0,6.69 -7.132,-2.669 0.371,-3.567 -3.335,0 -1.484,-1.785 0,2.498 2.224,2.498 -5.928,-4.639 -1.853,-4.282 0.371,-3.569 -3.707,-1.069 -5.186,0 -3.336,-4.997 -2.965,-4.281 -4.816,-1.071 -7.043,0 -4.446,-3.211 -5.929,-4.639 -5.188,-4.638 -6.3,-2.141 4.448,5.353 4.076,4.994 4.446,2.855 -7.04,-2.141 8.152,4.996 7.781,7.136 5.56,4.639 16.674,8.565 5.56,4.282 5.928,6.066 10.097,1.508 0,12.311 -24.55,-4.54 -13.339,-3.212 -8.893,-1.785 -8.896,-5.709 -6.669,-1.427 -11.487,0 -10.006,1.07 -8.151,-2.141 -4.077,-4.994 0,-5.354 0.741,-6.066 8.152,2.498 7.042,3.925 11.488,0 8.893,-0.357 -15.936,-7.85 -21.492,-3.212 -1.854,-6.065 -0.368,-3.925 -1.854,-4.638 -7.412,-6.068 -6.299,-2.14 -2.224,-3.926 -3.333,-3.567 -4.818,-3.211 2.224,9.633 4.074,6.067 -5.186,-1.428 -2.966,-3.568 -4.075,-3.212 -2.224,-2.14 -4.818,-1.427 -6.669,-4.996 -5.56,-1.071 -8.523,-4.638 -4.816,-5.352 0,-3.926 0,-3.211 -3.335,-1.785 -6.67,0 -2.965,-3.212 -0.371,-3.567 2.966,2.855 4.446,1.07 7.041,0 -5.93,-3.569 -5.928,-1.427 -7.042,-2.854 -4.816,-1.428 0,-3.212 -0.741,-5.351 -3.335,-3.211 -1.853,2.497 -3.706,0 -2.594,-7.492 -2.594,-4.64 -0.74,-6.066 0,-5.352 -6.671,-6.423 -3.705,-3.924 -10.376,-9.993 -3.336,-6.778 -17.046,-10.706 -7.781,-1.07 -1.854,-6.423 -15.563,-5.709 -8.523,1.071 -4.076,1.784 -5.189,-1.071 2.224,4.639 -4.817,0.713 -4.076,-1.783 21.864,14.986 -7.783,-2.141 -3.334,0 -4.447,-1.427 -5.188,-2.854 2.964,4.638 -9.263,-2.854 -10.005,-2.855 -6.3,-0.714 -5.929,-3.924 -4.076,-4.282 -6.67,-2.499 -5.93,-2.141 L 0,0 Z" /></g></g></g><g
       transform="matrix(4.2594646,0,0,4.2594646,1.6,-475.2)"
       id="g4590"><g
         clip-path="url(#clipPath4594)"
         id="g4592"><g
           transform="translate(88.053,3.4157)"
           id="g4598"><path
             id="path4600"
             style="fill:#265533;fill-opacity:1;fill-rule:nonzero;stroke:none"
             d="m 0,0 c -2.823,-0.667 -5.177,-1.219 -5.229,-1.226 -0.054,-0.008 -0.445,0.261 -0.87,0.598 -0.426,0.336 0.33,1.54 1.681,2.675 2.349,1.975 2.605,2.002 6.004,0.614 L 5.135,1.212 0,0 Z m -21.677,121.228 c 5.002,-1.581 5.459,-3.197 1.01,-3.576 -1.541,-0.131 -4.09,-0.496 -5.667,-0.812 -1.701,-0.341 -3.447,-0.11 -4.297,0.57 -4.325,3.447 1.823,6.069 8.954,3.818 M 40.165,4.189 c -2.804,0 -2.914,0.747 -0.507,3.46 2.094,2.36 1.419,4.683 -1.361,4.683 -1.046,0 -4.562,-2.138 -7.815,-4.751 C 27.231,4.969 23.042,2.131 21.177,1.275 19.31,0.418 16.961,-0.762 15.956,-1.347 14.75,-2.048 12.995,-2.148 10.798,-1.64 l -3.327,0.771 3.723,0.324 c 4.66,0.407 4.691,1.6 0.136,5.31 l -3.589,2.924 3.301,2.279 c 2.942,2.028 4.906,2.486 15.254,3.552 2.51,0.259 1.687,1.907 -1.282,2.566 -3.018,0.672 -2.764,0.843 1.629,1.099 3.9,0.226 5.764,1.62 4.807,3.59 -0.541,1.112 -2.148,1.509 -6.121,1.509 -2.964,0 -6.39,0.598 -7.613,1.328 -2.165,1.294 -2.155,1.33 0.395,1.358 3.705,0.04 8.267,2.632 8.267,4.697 0,1.521 -0.556,1.67 -4.297,1.154 -2.364,-0.327 -7.347,-1.363 -11.076,-2.303 -8.526,-2.151 -10.665,-2.139 -17.858,0.1 -3.199,0.995 -7.295,1.809 -9.103,1.809 -2.724,0 -3.185,0.311 -2.688,1.809 0.329,0.996 1.329,1.81 2.221,1.81 0.892,0 1.922,0.621 2.29,1.379 0.49,1.01 1.651,1.233 4.334,0.835 2.512,-0.371 4.107,-0.122 5.067,0.79 0.79,0.752 2.413,1.124 3.723,0.854 1.547,-0.32 2.896,0.168 4.046,1.465 1.511,1.704 2.657,1.915 9.261,1.703 9.56,-0.305 10.765,1.264 3.002,3.909 -4.171,1.421 -6.668,1.73 -10.121,1.252 -2.521,-0.351 -6.725,-0.752 -9.342,-0.891 -2.674,-0.144 -6.253,-1.127 -8.17,-2.245 -3.208,-1.872 -3.797,-1.923 -9.903,-0.844 -6.916,1.222 -8.574,2.192 -6.519,3.814 0.702,0.555 1.275,1.788 1.275,2.742 0,1.377 0.53,1.608 2.578,1.118 4.614,-1.102 6.031,-0.999 5.594,0.405 -0.923,2.958 -0.542,3.532 4.415,6.651 4.769,3 5.321,3.138 7.694,1.909 3.295,-1.703 4.839,-1.667 7.422,0.178 1.724,1.232 2.623,1.313 5.015,0.453 7.074,-2.545 11.589,-0.121 5.571,2.992 -4.622,2.391 -2.293,2.744 4.001,0.607 5.809,-1.973 11.568,-2.551 11.568,-1.159 0,1.455 -13.169,8.57 -17.467,9.436 -3.457,0.696 -4.884,0.556 -7.363,-0.726 -4.06,-2.101 -24.239,-6.642 -26.991,-6.075 -1.419,0.293 -2.038,1.101 -1.81,2.364 0.295,1.628 0.993,1.873 4.644,1.621 3.245,-0.224 4.297,0.039 4.297,1.077 0,0.757 -0.516,1.626 -1.146,1.934 -2.965,1.446 -0.672,2.013 3.104,0.767 4.041,-1.334 4.345,-1.31 6.181,0.481 1.679,1.636 2.115,1.707 3.339,0.543 0.775,-0.737 2.087,-1.339 2.918,-1.339 2.381,0 3.135,1.747 1.458,3.375 -1.347,1.31 -1.256,1.402 0.761,0.766 4.377,-1.379 5.72,-1.045 6.093,1.516 0.299,2.056 0.797,2.404 2.864,1.995 3.327,-0.657 7.612,1.758 5.757,3.244 -1.759,1.41 -13.154,3.468 -16.588,2.997 -3.788,-0.519 -11.093,4.644 -12.025,8.5 -0.582,2.406 -0.349,2.94 1.285,2.94 1.431,0 1.826,0.511 1.396,1.81 -0.741,2.235 -0.848,2.238 5.458,-0.18 3.724,-1.429 5.538,-1.713 6.43,-1.011 0.89,0.703 0.508,1.518 -1.35,2.886 -3.396,2.497 -2.618,2.916 3.421,1.844 5.947,-1.054 9.291,-0.392 9.291,1.837 0,1.056 1.118,1.819 3.151,2.153 1.901,0.312 3.915,1.597 5.073,3.238 1.231,1.745 3.284,2.998 5.728,3.497 2.096,0.429 3.809,1.364 3.809,2.078 0,1.067 -2.787,1.3 -15.47,1.3 -8.508,0 -16.127,0.336 -16.929,0.746 -1.101,0.562 -0.567,1.64 2.159,4.356 3.315,3.305 3.975,3.567 7.764,3.091 4.655,-0.583 9.657,1.01 10.204,3.253 0.574,2.35 -1.695,2.772 -28.98,5.394 -6.302,0.605 -11.838,1.542 -12.301,2.082 -0.463,0.542 -0.848,1.899 -0.859,3.019 -0.014,1.648 0.618,2.035 3.313,2.035 2.606,0 3.217,0.346 2.812,1.585 -0.458,1.402 0.628,1.617 9.507,1.886 6.216,0.188 10.906,0.79 12.339,1.583 1.274,0.704 3.231,1.28 4.351,1.28 2.959,0 2.502,2.605 -0.54,3.093 -1.418,0.228 -5.566,0.615 -9.218,0.86 -3.653,0.247 -8.844,1.29 -11.536,2.319 -5.915,2.261 -7.998,2.326 -12.174,0.379 -3.768,-1.757 -6.564,-1.159 -7.934,1.699 -1.13,2.353 0.334,4.317 3.218,4.317 2.931,0 6.793,2.515 7.198,4.689 0.201,1.078 1.866,2.615 3.701,3.415 4.217,1.839 6.204,4.177 4.616,5.432 -0.789,0.623 -3.395,0.059 -8.075,-1.743 -4.267,-1.643 -7.867,-2.464 -9.411,-2.145 -2.809,0.58 -3.438,3.019 -0.779,3.019 0.955,0 1.719,0.804 1.719,1.809 0,1.234 0.764,1.809 2.399,1.809 1.369,0 2.637,0.718 2.952,1.671 0.401,1.213 1.317,1.555 3.336,1.251 1.532,-0.231 3.578,0.098 4.547,0.733 1.332,0.875 2.082,0.901 3.086,0.107 1.906,-1.505 6.235,-1.29 7.03,0.347 0.525,1.078 2.175,1.334 7.284,1.13 8.638,-0.342 8.988,1.261 0.556,2.546 -3.604,0.549 -8.1,1.525 -9.991,2.172 -1.891,0.645 -9.11,1.417 -16.043,1.715 -12.546,0.54 -12.603,0.553 -12.29,2.765 0.45,3.175 2.165,3.736 10.571,3.455 7.054,-0.235 7.469,-0.136 7.83,1.878 0.315,1.758 0.914,2.055 3.437,1.712 1.681,-0.229 3.919,-0.708 4.972,-1.066 1.434,-0.487 2.009,-0.122 2.292,1.456 0.224,1.25 1.077,2.028 2.096,1.917 0.946,-0.105 2.695,-0.307 3.887,-0.453 4.055,-0.494 3.126,1.822 -1.179,2.943 -2.875,0.75 -8.27,0.955 -16.389,0.623 l -12.102,-0.495 -2.005,3.119 c -2.664,4.144 -2.538,4.856 0.86,4.856 3.128,0 3.625,0.847 1.488,2.533 -2.061,1.628 1.513,1.427 4.309,-0.243 3.477,-2.076 4.101,-1.668 3.723,2.439 -0.335,3.625 -0.623,3.902 -5.494,5.318 -3.557,1.035 -5.374,2.155 -5.901,3.64 -1.318,3.711 -1.063,5.313 0.852,5.313 1.169,0 1.599,0.497 1.176,1.365 -0.47,0.969 0.298,0.805 2.633,-0.559 3.677,-2.145 6.323,-1.556 5.408,1.205 -0.42,1.271 0.066,1.945 1.644,2.27 3.332,0.689 0.701,2.72 -5.103,3.939 -2.603,0.548 -5.51,1.513 -6.454,2.147 -0.946,0.633 -3.099,1.409 -4.782,1.725 -2.194,0.41 -3.436,1.467 -4.378,3.723 -0.724,1.732 -0.979,3.583 -0.564,4.111 1.413,1.805 -2.72,5.407 -6.203,5.407 -2.714,0 -3.384,0.46 -3.956,2.714 -0.723,2.863 0.575,6.657 2.624,7.656 2.392,1.168 1.18,3.252 -2.202,3.786 -3.09,0.488 -3.486,0.96 -4.157,4.953 -1.089,6.481 -5.031,5.654 -5.031,-1.056 0,-1.682 -0.813,-2.953 -2.292,-3.577 -3.268,-1.381 -2.913,-3.619 0.574,-3.619 3.22,0 3.046,0.73 3.317,-13.841 0.122,-6.636 0.579,-9.068 1.816,-9.671 1.407,-0.687 1.351,-1.068 -0.374,-2.573 -1.129,-0.985 -2.935,-1.579 -4.082,-1.342 -3.117,0.644 -11.791,-1.448 -11.227,-2.708 0.265,-0.593 1.449,-1.007 2.628,-0.92 1.791,0.135 1.676,-0.122 -0.697,-1.562 -1.563,-0.948 -3.307,-1.733 -3.877,-1.744 -0.57,-0.011 -0.262,-0.733 0.685,-1.603 0.947,-0.87 2.063,-2.338 2.479,-3.261 0.429,-0.952 1.447,-1.468 2.355,-1.192 2.681,0.811 5.643,-1.533 4.748,-3.759 -0.564,-1.405 -1.711,-1.967 -4.011,-1.967 -1.771,0 -5.217,-0.693 -7.658,-1.54 -3.735,-1.296 -4.042,-1.591 -1.942,-1.862 1.372,-0.18 3.112,-0.912 3.865,-1.628 0.754,-0.716 2.768,-1.303 4.476,-1.303 4.008,0 4.837,-0.723 3.35,-2.919 -1.05,-1.547 -0.897,-1.707 1.186,-1.238 1.315,0.296 3.551,0.762 4.968,1.038 2.38,0.46 2.425,0.4 0.573,-0.779 -2.411,-1.536 -2.568,-2.436 -0.426,-2.436 0.868,0 2.176,-0.568 2.907,-1.264 2.136,-2.032 -4.003,-5.385 -8.48,-4.629 -1.9,0.32 -5.774,0.734 -8.612,0.918 -2.313,0.152 -5.727,0.448 -8.364,0.722 l 0,-10.054 c 0.625,-0.294 1.91,-0.055 3.857,0.768 2.288,0.968 3.275,-0.313 1.07,-1.389 -2.951,-1.441 -0.87,-2.435 3.909,-1.869 3.257,0.385 5.336,0.24 5.844,-0.41 0.435,-0.554 2.623,-0.879 4.865,-0.722 2.516,0.177 4.26,-0.146 4.563,-0.844 0.27,-0.622 -0.33,-1.131 -1.331,-1.131 -1.002,0 -2.943,-1.018 -4.314,-2.263 -1.843,-1.673 -3.627,-2.261 -6.867,-2.261 -5.162,0 -5.711,-1.451 -1.126,-2.984 1.789,-0.599 3.033,-1.596 2.769,-2.218 -0.265,-0.622 0.077,-1.132 0.76,-1.132 2.044,0 1.404,-3.221 -0.977,-4.924 -2.729,-1.949 -6.794,-2.059 -13.022,-0.275 l 0,-21.41 c 0.329,-0.053 0.324,-0.334 0,-0.808 l 0,-15.047 c 5.221,-0.942 6.644,-1.744 7.246,-3.686 0.641,-2.06 1.186,-2.236 6.353,-2.053 4.898,0.175 4.724,-2.114 4.724,-2.114 0,0 4.121,-4.655 -2.701,-3.214 -6.464,1.365 -7.883,0.514 -5.48,-3.291 0.997,-1.577 1.492,-3.281 1.097,-3.784 -1.243,-1.588 -5.68,-1.163 -11.239,0.904 l 0,-16.164 c 0.423,0.034 0.897,0.09 1.48,0.182 4.175,0.659 3.659,-0.858 -0.744,-2.179 -0.267,-0.08 -0.509,-0.172 -0.736,-0.268 l 0,-2.121 c 2.357,-0.504 6.909,-0.088 9.511,1.086 3.607,1.628 4.584,1.664 4.584,0.17 0,-2.058 -6.646,-5.17 -13.291,-6.224 -0.272,-0.043 -0.54,-0.089 -0.804,-0.137 l 0,-5.976 c 0.462,-0.039 0.935,-0.065 1.423,-0.068 l 4.076,-0.019 -2.864,-1.741 c -2.33,-1.415 -2.59,-1.957 -1.396,-2.904 1.195,-0.946 2.406,-0.895 6.529,0.275 4.192,1.191 5.163,1.226 5.658,0.21 0.328,-0.676 1.902,-1.228 3.497,-1.228 4.39,0 3.85,-3.194 -0.824,-4.873 -2.047,-0.737 -4.712,-1.468 -5.921,-1.626 -3.088,-0.404 -3.546,-2.28 -0.73,-2.986 3.975,-0.996 2.663,-1.851 -4.808,-3.133 -1.345,-0.231 -2.957,-0.534 -4.64,-0.869 l 0,-41.286 c 0.213,-0.118 0.343,-0.255 0.343,-0.417 0,-0.499 0.744,-0.907 1.652,-0.907 0.908,0 1.933,-0.36 2.279,-0.802 0.346,-0.44 -0.011,-1.204 -0.793,-1.695 -0.558,-0.352 -1.915,-0.281 -3.481,0.024 l 0,-23.13 53.32,0 c -0.165,0.21 -0.265,0.457 -0.265,0.723 0,0.747 0.461,1.357 1.024,1.357 0.562,0 1.32,-0.61 1.682,-1.357 0.136,-0.279 0.173,-0.521 0.133,-0.723 l 4.85,0 c -0.525,0.446 -0.985,1.173 -1.248,2.206 -0.407,1.611 -0.239,3.323 0.372,3.805 1.741,1.375 4.188,-0.79 4.127,-3.651 -0.024,-1.107 -0.346,-1.89 -0.807,-2.36 l 66.747,0 c 2.654,4.448 2.262,6.604 -1.214,6.604" /></g><path
           id="path4602"
           style="fill:#5d5d5e;fill-opacity:1;fill-rule:nonzero;stroke:none"
           d="m -51.503,0.001 500,0 0,-55 -500,0 0,55 z" /></g></g></g></svg>